<?xml version="1.0" encoding="UTF-8" standalone="no"?>
<svg xmlns="http://www.w3.org/2000/svg"
     xmlns:xlink="http://www.w3.org/1999/xlink"
     width="761px" height="427px" viewBox="0 0 761 427"
     style="stroke:none">
<title>Figure n°0</title>
<desc>
Creator: GL2PS 1.3.2, (C) 1999-2006 Christophe Geuzaine (geuz@geuz.org)
For: Scilab
CreationDate: Thu Jun 14 18:05:47 2012
</desc>
<defs>
</defs>
<polygon fill="#ffffff" points="0,0 761,0 761,427 0,427"/>
<g>
<polygon fill="#ffffff" points="95.125,373.625 95.125,53.375 95.125,53.375"/>
<polygon fill="#ffffff" points="95.125,373.625 95.125,53.375 95.125,373.625"/>
<polygon fill="#ffffff" points="95.125,373.625 665.875,373.625 665.875,373.625"/>
<polygon fill="#ffffff" points="95.125,373.625 665.875,373.625 95.125,373.625"/>
<polygon fill="#ffffff" points="95.125,373.625 665.875,373.625 665.875,53.375"/>
<polygon fill="#ffffff" points="95.125,373.625 665.875,53.375 95.125,53.375"/>
<polyline fill="none" stroke="#000000" stroke-width="0.5" points="95.125,373.625 95.125,53.375 95.125,53.375 665.875,53.375 665.875,373.625 665.875,373.625 95.125,373.625"/>
<polyline fill="none" stroke="#000000" stroke-width="0.5" points="665.875,53.375 95.125,53.375"/>
<polyline fill="none" stroke="#000000" stroke-width="0.5" points="665.875,53.375 665.875,373.625"/>
<polyline fill="none" stroke="#000000" stroke-width="0.5" points="665.875,53.375 665.875,53.375"/>
<polyline fill="none" stroke="#0000ff" stroke-width="0.5" points="95.125,365.625 184.563,358.688 239.125,351.688 278.5,344.688 309.313,337.75 334.625,330.75 356.125,323.75 374.813,316.813 391.375,309.813 406.125,302.813 419.563,295.875 431.813,288.875 443.125,281.875 453.563,274.938 463.313,267.938 472.438,260.938 481,254 489.125,247 496.75,240 504,233.063 510.938,226.063 517.5,219.063 523.813,212.063 529.875,205.125 535.625,198.125 541.188,191.125 546.563,184.188 551.75,177.188 556.688,170.188 561.5,163.25 566.188,156.25 570.688,149.25 575.063,142.313 579.313,135.313 583.438,128.313 587.438,121.375 591.313,114.375 595.125,107.375 598.813,100.438 602.375,93.4375"/>
<polyline fill="none" stroke="#000000" stroke-width="0.5" points="95.125,373.625 95.125,53.375"/>
<polyline fill="none" stroke="#000000" stroke-width="0.5" points="95.125,373.625 86.5625,373.625"/>
<polyline fill="none" stroke="#000000" stroke-width="0.5" points="95.125,333.625 86.5625,333.625"/>
<polyline fill="none" stroke="#000000" stroke-width="0.5" points="95.125,293.563 86.5625,293.563"/>
<polyline fill="none" stroke="#000000" stroke-width="0.5" points="95.125,253.563 86.5625,253.563"/>
<polyline fill="none" stroke="#000000" stroke-width="0.5" points="95.125,213.5 86.5625,213.5"/>
<polyline fill="none" stroke="#000000" stroke-width="0.5" points="95.125,173.5 86.5625,173.5"/>
<polyline fill="none" stroke="#000000" stroke-width="0.5" points="95.125,133.438 86.5625,133.438"/>
<polyline fill="none" stroke="#000000" stroke-width="0.5" points="95.125,93.4375 86.5625,93.4375"/>
<polyline fill="none" stroke="#000000" stroke-width="0.5" points="95.125,53.375 86.5625,53.375"/>
<text fill="#000000" style="stroke:none" x="77" y="379" transform="rotate(0, 77, 379)" font-size="10" font-family="SansSerif" font-style="normal" font-weight="normal">0</text>
<text fill="#000000" style="stroke:none" x="77" y="339" transform="rotate(0, 77, 339)" font-size="10" font-family="SansSerif" font-style="normal" font-weight="normal">5</text>
<text fill="#000000" style="stroke:none" x="72" y="299" transform="rotate(0, 72, 299)" font-size="10" font-family="SansSerif" font-style="normal" font-weight="normal">10</text>
<text fill="#000000" style="stroke:none" x="71" y="259" transform="rotate(0, 71, 259)" font-size="10" font-family="SansSerif" font-style="normal" font-weight="normal">15</text>
<text fill="#000000" style="stroke:none" x="71" y="218" transform="rotate(0, 71, 218)" font-size="10" font-family="SansSerif" font-style="normal" font-weight="normal">20</text>
<text fill="#000000" style="stroke:none" x="71" y="178" transform="rotate(0, 71, 178)" font-size="10" font-family="SansSerif" font-style="normal" font-weight="normal">25</text>
<text fill="#000000" style="stroke:none" x="71" y="138" transform="rotate(0, 71, 138)" font-size="10" font-family="SansSerif" font-style="normal" font-weight="normal">30</text>
<text fill="#000000" style="stroke:none" x="71" y="98" transform="rotate(0, 71, 98)" font-size="10" font-family="SansSerif" font-style="normal" font-weight="normal">35</text>
<text fill="#000000" style="stroke:none" x="71" y="58" transform="rotate(0, 71, 58)" font-size="10" font-family="SansSerif" font-style="normal" font-weight="normal">40</text>
<polyline fill="none" stroke="#000000" stroke-width="0.5" stroke-dasharray="4,4,4,4" points="95.125,373.625 665.875,373.625 665.875,373.625"/>
<polyline fill="none" stroke="#000000" stroke-width="0.5" stroke-dasharray="4,4,4,4" points="95.125,333.625 665.875,333.625 665.875,333.625"/>
<polyline fill="none" stroke="#000000" stroke-width="0.5" stroke-dasharray="4,4,4,4" points="95.125,293.563 665.875,293.563 665.875,293.563"/>
<polyline fill="none" stroke="#000000" stroke-width="0.5" stroke-dasharray="4,4,4,4" points="95.125,253.563 665.875,253.563 665.875,253.563"/>
<polyline fill="none" stroke="#000000" stroke-width="0.5" stroke-dasharray="4,4,4,4" points="95.125,213.5 665.875,213.5 665.875,213.5"/>
<polyline fill="none" stroke="#000000" stroke-width="0.5" stroke-dasharray="4,4,4,4" points="95.125,173.5 665.875,173.5 665.875,173.5"/>
<polyline fill="none" stroke="#000000" stroke-width="0.5" stroke-dasharray="4,4,4,4" points="95.125,133.438 665.875,133.438 665.875,133.438"/>
<polyline fill="none" stroke="#000000" stroke-width="0.5" stroke-dasharray="4,4,4,4" points="95.125,93.4375 665.875,93.4375 665.875,93.4375"/>
<polyline fill="none" stroke="#000000" stroke-width="0.5" stroke-dasharray="4,4,4,4" points="95.125,53.375 665.875,53.375 665.875,53.375"/>
<polyline fill="none" stroke="#000000" stroke-width="0.5" points="95.125,373.625 665.875,373.625"/>
<polyline fill="none" stroke="#000000" stroke-width="0.5" points="95.125,373.625 95.125,378.438"/>
<polyline fill="none" stroke="#000000" stroke-width="0.5" points="166.438,373.625 166.438,378.438"/>
<polyline fill="none" stroke="#000000" stroke-width="0.5" points="237.813,373.625 237.813,378.438"/>
<polyline fill="none" stroke="#000000" stroke-width="0.5" points="309.125,373.625 309.125,378.438"/>
<polyline fill="none" stroke="#000000" stroke-width="0.5" points="380.5,373.625 380.5,378.438"/>
<polyline fill="none" stroke="#000000" stroke-width="0.5" points="451.813,373.625 451.813,378.438"/>
<polyline fill="none" stroke="#000000" stroke-width="0.5" points="523.188,373.625 523.188,378.438"/>
<polyline fill="none" stroke="#000000" stroke-width="0.5" points="594.5,373.625 594.5,378.438"/>
<polyline fill="none" stroke="#000000" stroke-width="0.5" points="665.875,373.625 665.875,378.438"/>
<text fill="#000000" style="stroke:none" x="87" y="390" transform="rotate(0, 87, 390)" font-size="10" font-family="SansSerif" font-style="normal" font-weight="normal">0.0</text>
<text fill="#000000" style="stroke:none" x="158" y="390" transform="rotate(0, 158, 390)" font-size="10" font-family="SansSerif" font-style="normal" font-weight="normal">0.5</text>
<text fill="#000000" style="stroke:none" x="230" y="390" transform="rotate(0, 230, 390)" font-size="10" font-family="SansSerif" font-style="normal" font-weight="normal">1.0</text>
<text fill="#000000" style="stroke:none" x="301" y="390" transform="rotate(0, 301, 390)" font-size="10" font-family="SansSerif" font-style="normal" font-weight="normal">1.5</text>
<text fill="#000000" style="stroke:none" x="373" y="390" transform="rotate(0, 373, 390)" font-size="10" font-family="SansSerif" font-style="normal" font-weight="normal">2.0</text>
<text fill="#000000" style="stroke:none" x="444" y="390" transform="rotate(0, 444, 390)" font-size="10" font-family="SansSerif" font-style="normal" font-weight="normal">2.5</text>
<text fill="#000000" style="stroke:none" x="515" y="390" transform="rotate(0, 515, 390)" font-size="10" font-family="SansSerif" font-style="normal" font-weight="normal">3.0</text>
<text fill="#000000" style="stroke:none" x="587" y="390" transform="rotate(0, 587, 390)" font-size="10" font-family="SansSerif" font-style="normal" font-weight="normal">3.5</text>
<text fill="#000000" style="stroke:none" x="658" y="390" transform="rotate(0, 658, 390)" font-size="10" font-family="SansSerif" font-style="normal" font-weight="normal">4.0</text>
<text fill="#000000" style="stroke:none" x="234" y="40" transform="rotate(0, 234, 40)" font-size="18" font-family="SansSerif" font-style="normal" font-weight="normal">Rocket Mass ratio versus Delta-V</text>
<text fill="#000000" style="stroke:none" x="221" y="409" transform="rotate(0, 221, 409)" font-size="14" font-family="SansSerif" font-style="normal" font-weight="normal">Delta-v (multiples of effective exhaust velocity)</text>
<text fill="#000000" style="stroke:none" x="65" y="249" transform="rotate(270, 65, 249)" font-size="14" font-family="SansSerif" font-style="normal" font-weight="normal">Mass ratio</text>
</g>
</svg>
