<?xml version="1.0" encoding="UTF-8"?>
<svg width="440pt" height="540pt" version="1.1" xml:space="preserve" xmlns="http://www.w3.org/2000/svg" xmlns:cc="http://creativecommons.org/ns#" xmlns:dc="http://purl.org/dc/elements/1.1/" xmlns:rdf="http://www.w3.org/1999/02/22-rdf-syntax-ns#" xmlns:xlink="http://www.w3.org/1999/xlink"><metadata><rdf:RDF><cc:Work rdf:about=""><dc:format>image/svg+xml</dc:format><dc:type rdf:resource="http://purl.org/dc/dcmitype/StillImage"/></cc:Work></rdf:RDF></metadata><defs><marker id="b" overflow="visible" orient="auto"><path transform="scale(.6) rotate(180) translate(-5)" d="m8.7186 4.0337-10.926-4.0177 10.926-4.0177c-1.7455 2.3721-1.7354 5.6175-6e-7 8.0354z" fill-rule="evenodd" stroke-linejoin="round" stroke-width=".625"/></marker><linearGradient id="a"><stop stop-color="#575757" stop-opacity=".7608" offset="0"/><stop stop-color="#fff" stop-opacity=".698" offset="1"/></linearGradient><linearGradient id="e" x1="605.58" x2="605.58" y1="343.46" y2="467.78" gradientTransform="matrix(-.74807 0 0 1.3368 550.92 -6.1756e-6)" gradientUnits="userSpaceOnUse"><stop stop-color="#ff002f" offset="0"/><stop stop-color="#5f00ff" offset="1"/></linearGradient><linearGradient id="d" x1="576.87" x2="576.87" y1="343.46" y2="474.24" gradientTransform="matrix(-.74807 0 0 1.3368 550.92 -6.1756e-6)" gradientUnits="userSpaceOnUse"><stop stop-color="#ffff32" offset="0"/><stop stop-color="#5f008f" stop-opacity=".0706" offset="1"/></linearGradient><linearGradient id="f" x1="125.43" x2="146.01" y1="1742.4" y2="1742.4" gradientTransform="matrix(3.2131 0 0 .31123 -550.92 -6.1756e-6)" gradientUnits="userSpaceOnUse" spreadMethod="reflect" xlink:href="#a"/><linearGradient id="m" x1="138.54" x2="138.68" y1="477.03" y2="460.22" gradientTransform="matrix(2.6844 0 0 .37253 -550.92 -6.1756e-6)" gradientUnits="userSpaceOnUse" spreadMethod="reflect"><stop stop-color="#4c4c4c" offset="0"/><stop stop-color="#fff" offset="1"/></linearGradient><linearGradient id="l" x1="216.31" x2="228.93" y1="943.44" y2="943.45" gradientTransform="matrix(1.971 0 0 .50736 -550.92 -6.1756e-6)" gradientUnits="userSpaceOnUse" spreadMethod="reflect" xlink:href="#a"/><linearGradient id="k" x1="152.74" x2="170.09" y1="1383.5" y2="1383.5" gradientTransform="matrix(2.7085 0 0 .3692 -550.92 -6.1756e-6)" gradientUnits="userSpaceOnUse" spreadMethod="reflect" xlink:href="#a"/><linearGradient id="j" x1="113.31" x2="135.71" y1="2017.8" y2="2017.8" gradientTransform="matrix(3.4971 0 0 .28595 -550.92 -6.1756e-6)" gradientUnits="userSpaceOnUse" spreadMethod="reflect" xlink:href="#a"/><linearGradient id="i" x1="107.07" x2="130.53" y1="2248.2" y2="2248.2" gradientTransform="matrix(3.6626 0 0 .27303 -550.92 -6.1756e-6)" gradientUnits="userSpaceOnUse" spreadMethod="reflect" xlink:href="#a"/><linearGradient id="h" x1="103.1" x2="127.27" y1="2467.4" y2="2467.4" gradientTransform="matrix(3.7734 0 0 .26501 -550.92 -6.1756e-6)" gradientUnits="userSpaceOnUse" spreadMethod="reflect" xlink:href="#a"/></defs><path d="m322.36 37.818s3.5338-3.2514 10.738 9.2043c6.0516 10.462 6.9032 23.778 6.9032 23.778" fill="none" marker-end="url(#b)" stroke="#000" stroke-width="2"/><rect transform="scale(-1,1)" x="-183.08" y="110.84" width="46.683" height="14.569" fill="url(#m)" fill-rule="evenodd"/><path d="m240.56 405.04h2.999c4.181 17.24-34.786 54.718-47.144 92.976-15.357 31.218-18.833 103.72-19.69 103.68" fill="none" stroke="#f00" stroke-linejoin="round" stroke-width="6"/><path d="m211.96 378.2 0.021-49.214 99.531-0.606-0.0524 50.058c-12.475 4.9129-45.524 14.834-39.24 36.076 9.5128 24.293 22.075 29.239 42.469 72.325 16.966 41.644 17.046 47.038 24.341 115.56l-0.3207 0.0191-152.41 0.3552c7.032-68.699 7.23-74.289 24.196-115.93 20.394-43.086 32.956-48.032 42.469-72.325 6.284-21.242-18.282-28.133-27.977-31.769l-13.029-4.5448z" fill="url(#d)" fill-rule="evenodd" stroke="url(#e)" stroke-width="1.875"/><path d="m104.07 128.09s10.569-1.1628 16.997 6.3326c7.57 8.2712 7.855 21.324 7.855 21.324h6.856v-80.127h-6.856s-0.285 13.053-7.855 21.324c-6.428 7.4953-16.997 6.3326-16.997 6.3326v24.814z" fill="none" stroke="#000" stroke-width="2.5"/><path d="m436.23 129.34s-10.569-1.1628-16.997 6.3326c-7.5699 8.2712-7.8556 21.324-7.8556 21.324h-6.8557v-80.127h6.8557s0.2857 13.053 7.8556 21.324c6.4273 7.4953 16.997 6.3326 16.997 6.3326v24.814z" fill="none" stroke="#000" stroke-width="2.5"/><rect transform="scale(-1,1)" x="-403.31" y="109.9" width="46.683" height="14.569" fill="url(#m)" fill-rule="evenodd"/><text transform="scale(-.99472 1.0053)" x="25.511026" y="66.758636" fill="#000000" font-family="Arial" font-size="24px" font-weight="bold" stroke-width="1pt" style="line-height:125%" xml:space="preserve"><tspan font-family="Arial" font-size="24px" font-weight="bold" style="line-height:125%"/></text>





<text transform="scale(.99472 1.0053)" x="437.74805" y="151.53337" fill="#000000" font-family="Arial" font-size="20px" font-weight="bold" style="line-height:125%" xml:space="preserve"><tspan x="437.74805" y="151.53337">Oxidizer </tspan><tspan x="437.74805" y="176.53337">pump</tspan></text>





<rect transform="scale(-1,1)" x="-323.48" y="479.43" width="121.19" height="11.513" rx="5.8832" ry="5.7567" fill="url(#f)" fill-rule="evenodd" stroke="#000" stroke-width=".25"/><rect transform="scale(-1,1)" x="-346.5" y="591.02" width="167.25" height="11.513" rx="6.9069" ry="5.7567" fill="url(#h)" fill-rule="evenodd" stroke="#000" stroke-width=".25"/><rect transform="scale(-1,1)" x="-341.48" y="550.94" width="157.55" height="11.513" rx="7.6482" ry="5.7567" fill="url(#i)" fill-rule="evenodd" stroke="#000" stroke-width=".25"/><rect transform="scale(-1,1)" x="-334.64" y="514.11" width="143.62" height="11.513" rx="6.9716" ry="5.7567" fill="url(#j)" fill-rule="evenodd" stroke="#000" stroke-width=".25"/><rect transform="scale(-1,1)" x="-305.9" y="447.91" width="86.048" height="11.513" rx="6.6009" ry="5.7567" fill="url(#k)" fill-rule="evenodd" stroke="#000" stroke-width=".25"/><rect transform="scale(-1,1)" x="-285.3" y="415.8" width="45.448" height="11.513" rx="5.842" ry="5.7567" fill="url(#l)" fill-rule="evenodd" stroke="#000" stroke-width=".25"/><path d="m284.84 404.19h-2.9994c-4.181 17.24 34.786 54.718 47.144 92.976 15.357 31.218 18.833 103.72 19.69 103.68" fill="none" stroke="#f00" stroke-linejoin="round" stroke-width="6"/><path d="m132.36 160.36-4.7632 244.02 114.04 0.6061" fill="none" stroke="#f00" stroke-linejoin="round" stroke-width="6"/><text x="294.25769" y="201.52545" fill="#000000" font-family="Arial" font-size="20px" font-weight="bold" style="line-height:125%" xml:space="preserve"><tspan x="294.25769" y="201.52545">Control</tspan><tspan x="294.25769" y="226.52545">valves</tspan></text>





<text x="229.8291" y="43.87117" fill="#000000" font-family="Arial" font-size="20px" font-weight="bold" stroke-width="1pt" style="line-height:125%" xml:space="preserve"><tspan font-family="Arial" font-size="20px" font-weight="bold" style="line-height:125%">Turbines</tspan></text>








<text x="372.2706" y="512.75427" fill="#000000" font-family="Arial" font-size="20px" font-weight="bold" style="line-height:125%" xml:space="preserve"><tspan font-family="Arial" font-size="20px" font-weight="bold" style="line-height:125%">Heat</tspan><tspan x="372.2706" y="537.75427">exchanger</tspan></text>





<text x="214.6799" y="353.7814" fill="#000000" font-family="Arial" font-size="18px" style="line-height:100%" xml:space="preserve"><tspan x="214.6799" y="353.7814">Combustion</tspan><tspan x="214.6799" y="371.7814">  chamber</tspan></text>





<path d="m256.81 418.19 10.439 3.5676-10.367 3.0891-0.072-6.6567z" fill="#f00" fill-rule="evenodd" stroke="#f00" stroke-width="2.5"/><path d="m248.67 450.76 10.439 3.5676-10.367 3.0891-0.072-6.6567z" fill="#f00" fill-rule="evenodd" stroke="#f00" stroke-width="2.5"/><path d="m268.38 482.04 10.44 3.5676-10.368 3.0891-0.072-6.6567z" fill="#f00" fill-rule="evenodd" stroke="#f00" stroke-width="2.5"/><path d="m240.52 516.32 10.44 3.5676-10.368 3.0891-0.072-6.6567z" fill="#f00" fill-rule="evenodd" stroke="#f00" stroke-width="2.5"/><path d="m282.52 553.59 10.44 3.5676-10.368 3.0891-0.072-6.6567z" fill="#f00" fill-rule="evenodd" stroke="#f00" stroke-width="2.5"/><path d="m216.96 593.44 10.439 3.5676-10.367 3.0891-0.072-6.6567z" fill="#f00" fill-rule="evenodd" stroke="#f00" stroke-width="2.5"/><path d="m446.26 117.72h48.375l-0.568-41.556" fill="none" stroke="#0f0" stroke-linejoin="round" stroke-width="6"/><path d="m456.73 113.89-10.44 3.5676 10.368 3.0891 0.072-6.6567z" fill="none" stroke="#0f0" stroke-width="6"/><path d="m284.61 403.88 44.588-0.251 1.018-132.08-72.119-0.27906 1.5159-144.48-87.62-0.05667-0.32562 169.31 80.165-0.13613-0.4438 24.264" fill="none" stroke="#f00" stroke-linejoin="round" stroke-width="6"/><text x="258.37109" y="634.12097" fill="#000000" font-family="Arial" font-size="20px" font-weight="bold" stroke-width="1pt" style="line-height:125.00000%"><tspan font-family="Arial" font-size="20px" font-weight="bold" style="line-height:125.00000%">Nozzle</tspan></text>





<g transform="matrix(-1 0 0 1 718.48 -54.618)" fill="none" stroke="#000" stroke-width="2"><path d="m381.21 209.4h-14.382s-5.0841-19.793-4.7874-38.16c0.30936-19.955 4.6022-39.118 4.503-39.118l14.57-0.09589c0.09588-0.09588 4.3887 19.067 4.698 39.023 0.29663 18.367-4.6022 38.351-4.6022 38.351z" fill="none" stroke="#000" stroke-width="2.5"/></g><g transform="matrix(-1 0 0 1 569.61 -52.572)" fill="none" stroke="#000" stroke-width="2"><path d="m381.21 209.4h-14.382s-5.0841-19.793-4.7874-38.16c0.30936-19.955 4.6022-39.118 4.503-39.118l14.57-0.09589c0.09588-0.09588 4.3887 19.067 4.698 39.023 0.29663 18.367-4.6022 38.351-4.6022 38.351z" fill="none" stroke="#000" stroke-width="2.5"/></g><path d="m274.97 319.02v-22.809h102.65l0.1789-189.18-95.458 0.29593 0.24152-48.454 125.49 0.74203 0.01686 14.231" fill="none" stroke="#0f0" stroke-linejoin="round" stroke-width="6"/><path d="m264.05 126.56h43.337l8.0538-17.642" fill="none" stroke="#f00" stroke-linejoin="round" stroke-width="3"/><path d="m284 107.38h-46.405l-13.423 19.176" fill="none" stroke="#0f0" stroke-linejoin="round" stroke-width="3"/><g transform="matrix(-1 0 0 1 531.4 -228.32)" stroke="#000" stroke-width="2.5"><path d="m248.68 324.55c-6.1719 0-11.141 4.9687-11.141 11.141s4.9688 11.141 11.141 11.141 11.141-4.9687 11.141-11.141-4.9687-11.141-11.141-11.141z" fill="#fff" fill-rule="evenodd"/><path d="m240.63 328.31 15.907 14.998" fill="none"/><path d="m240.8 343.46 15.59-14.992" fill="none"/></g><g transform="matrix(-1 0 0 1 507.98 -210.2)" stroke="#000" stroke-width="2.5"><path d="m248.68 324.55c-6.1719 0-11.141 4.9687-11.141 11.141s4.9688 11.141 11.141 11.141 11.141-4.9687 11.141-11.141-4.9687-11.141-11.141-11.141z" fill="#fff" fill-rule="evenodd"/><path d="m240.63 328.31 15.907 14.998" fill="none"/><path d="m240.8 343.46 15.59-14.992" fill="none"/></g><rect transform="scale(-1,1)" x="-328.01" y="97.468" width="27.685" height="37.164" rx="6.9394" ry="8.4373" fill="#ff1e1c" fill-opacity=".5" fill-rule="evenodd"/><rect transform="scale(-1,1)" x="-242.61" y="98.006" width="27.685" height="37.164" rx="6.9394" ry="8.4373" fill="#ff1e1c" fill-opacity=".5" fill-rule="evenodd"/><path d="m57.371 82.343-1.0848 34.712h37.966" fill="none" stroke="#f00" stroke-linejoin="round" stroke-width="6"/><text transform="scale(.99472 1.0053)" x="42.966545" y="154.64555" fill="#000000" font-family="Arial" font-size="20px" font-weight="bold" style="line-height:125%" xml:space="preserve"><tspan x="42.966545" y="154.64555">Fuel </tspan><tspan x="42.966545" y="179.64555">pump</tspan></text>




<path d="m83.609 120.38 10.44-3.5676-10.368-3.0891-0.072 6.6567z" fill="none" stroke="#f00" stroke-width="6"/><path d="m359.27 292.71-10.44 3.5676 10.368 3.0891 0.072-6.6567z" fill="none" stroke="#0f0" stroke-width="6"/><path d="m259.47 103.96-10.44 3.5676 10.368 3.0891 0.072-6.6567z" fill="none" stroke="#0f0" stroke-width="3"/><path d="m374.04 155.77 3.5676 10.44 3.0891-10.368-6.6567-0.072z" fill="none" stroke="#0f0" stroke-width="6"/><path d="m354.39 55.693-10.44 3.5676 10.368 3.0891 0.072-6.6567z" fill="none" stroke="#0f0" stroke-width="6"/><path d="m270.99 308.72 3.5676 10.44 3.0891-10.368-6.6567-0.072z" fill="none" stroke="#0f0" stroke-width="6"/><path d="m284.29 130.15 10.44-3.5676-10.368-3.0891-0.072 6.6567z" fill="none" stroke="#f00" stroke-width="3"/><path d="m262.46 177.6-3.5676-10.44-3.0891 10.368 6.6567 0.072z" fill="none" stroke="#f00" stroke-width="6"/><path d="m127.81 200.78 3.5676 10.44 3.0891-10.368-6.6567-0.072z" fill="none" stroke="#f00" stroke-width="6"/><path d="m167.94 157.39 3.5676 10.44 3.0891-10.368-6.6567-0.072z" fill="none" stroke="#f00" stroke-width="6"/><path d="m188.29 299.37 10.44-3.5676-10.368-3.0891-0.072 6.6567z" fill="none" stroke="#f00" stroke-width="6"/><path d="m248.21 308.17 3.5676 10.44 3.0891-10.368-6.6567-0.072z" fill="none" stroke="#f00" stroke-width="6"/><path d="m302.32 268.3-10.44 3.5676 10.368 3.0891 0.072-6.6567z" fill="none" stroke="#f00" stroke-width="6"/><path d="m298.93 407.3 10.44-3.5676-10.368-3.0891-0.072 6.6567z" fill="none" stroke="#f00" stroke-width="6"/><path d="m186.66 408.38 10.44-3.5676-10.368-3.0891-0.072 6.6567z" fill="none" stroke="#f00" stroke-width="6"/><path d="m288.6 200.19s-19.176 0-6.9032-26.846c8.1304-17.785-0.76703-23.011-7.6703-29.914" fill="none" marker-end="url(#b)" stroke="#000" stroke-linecap="round" stroke-width="2"/><path d="m221.87 36.817s-18.107-5.5525-25.312 6.9032c-6.0516 10.462-3.0681 26.079-3.0681 26.079" fill="none" marker-end="url(#b)" stroke="#000" stroke-width="2"/></svg>
