<?xml version="1.0" encoding="utf-8"?>
<!-- Generator: Adobe Illustrator 15.1.0, SVG Export Plug-In . SVG Version: 6.00 Build 0)  -->
<!DOCTYPE svg PUBLIC "-//W3C//DTD SVG 1.1//EN" "http://www.w3.org/Graphics/SVG/1.1/DTD/svg11.dtd">
<svg version="1.1"
	 id="svg602" sodipodi:version="0.32" sodipodi:docname="Expander_rocket_cycle.svg" inkscape:export-ydpi="90.000000" inkscape:export-xdpi="90.000000" inkscape:version="0.46" xmlns:rdf="http://www.w3.org/1999/02/22-rdf-syntax-ns#" xmlns:svg="http://www.w3.org/2000/svg" xmlns:sodipodi="http://sodipodi.sourceforge.net/DTD/sodipodi-0.dtd" xmlns:inkscape="http://www.inkscape.org/namespaces/inkscape" xmlns:dc="http://purl.org/dc/elements/1.1/" xmlns:cc="http://creativecommons.org/ns#" inkscape:output_extension="org.inkscape.output.svg.inkscape" inkscape:export-filename="C:\Documents and Settings\Admin\Desktop\Cycles\Expander_Rocket_Cycle.png" sodipodi:docbase="C:\Desktop"
	 xmlns="http://www.w3.org/2000/svg" xmlns:xlink="http://www.w3.org/1999/xlink" x="0px" y="0px" width="444.752px"
	 height="580.363px" viewBox="50.201 47.111 444.752 580.363" enable-background="new 50.201 47.111 444.752 580.363"
	 xml:space="preserve">
<defs>
	
	
		<inkscape:perspective  id="perspective141" inkscape:persp3d-origin="275 : 225 : 1" inkscape:vp_z="550 : 337.5 : 1" inkscape:vp_y="0 : 1000 : 0" inkscape:vp_x="0 : 337.5 : 1" sodipodi:type="inkscape:persp3d">
		</inkscape:perspective>
</defs>
<sodipodi:namedview  id="base" inkscape:pageopacity="1.0000000" inkscape:current-layer="svg602" inkscape:window-y="-1" inkscape:window-x="0" inkscape:window-height="735" inkscape:window-width="573" showgrid="false" pagecolor="#ffffff" showborder="true" inkscape:cy="395.54079" inkscape:cx="259.57123" inkscape:zoom="0.65186685">
	</sodipodi:namedview>
<linearGradient id="rect5109_1_" gradientUnits="userSpaceOnUse" x1="53.2749" y1="-147.4624" x2="53.4198" y2="-130.6548" gradientTransform="matrix(-15.3426 0 0 -0.3725 1108.3491 121.2574)">
	<stop  offset="0" style="stop-color:#4C4C4C"/>
	<stop  offset="1" style="stop-color:#FFFFFF"/>
</linearGradient>
<rect id="rect5109" x="136.395" y="109.304" fill="url(#rect5109_1_)" width="266.82" height="14.568"/>
<path id="path751" sodipodi:nodetypes="ccscc" fill="none" stroke="#FF0000" stroke-width="6" stroke-linejoin="round" d="
	M202.979,334.477c0,0-0.222,45.156-0.225,47.014c-0.816,4.57,32.8,6.22,41.761,20.803c10.83,17.624-28.835,39.061-48.097,95.727
	c-15.357,31.218-18.833,103.721-19.69,103.683"/>
<linearGradient id="path853_1_" gradientUnits="userSpaceOnUse" x1="185.543" y1="229.1592" x2="185.542" y2="98.3769" gradientTransform="matrix(-0.7481 0 0 -1.3368 401.4606 765.4548)">
	<stop  offset="0" style="stop-color:#FFFF32"/>
	<stop  offset="1" style="stop-color:#5F008F;stop-opacity:0.0706"/>
</linearGradient>
<linearGradient id="path853_2_" gradientUnits="userSpaceOnUse" x1="520.0771" y1="323.041" x2="520.0759" y2="198.7171">
	<stop  offset="0" style="stop-color:#FF002F"/>
	<stop  offset="1" style="stop-color:#5F00FF"/>
</linearGradient>
<path id="path853" sodipodi:nodetypes="ccccccccccccc" fill="url(#path853_1_)" stroke="url(#path853_2_)" stroke-width="1.875" d="
	M211.956,378.205l0.021-49.214l99.531-0.606l-0.052,50.059c-12.476,4.912-45.524,14.834-39.24,36.075
	c9.513,24.294,22.075,29.239,42.469,72.325c16.966,41.645,17.045,47.038,24.341,115.559l-0.321,0.02l-152.407,0.355
	c7.032-68.699,7.23-74.29,24.196-115.934c20.394-43.086,32.956-48.032,42.469-72.325c6.284-21.241-18.282-28.133-27.977-31.769
	L211.956,378.205L211.956,378.205z"/>
<linearGradient id="rect741_1_" gradientUnits="userSpaceOnUse" x1="38.4951" y1="-902.1982" x2="53.0213" y2="-902.1982" gradientTransform="matrix(-2.7085 0 0 -0.3692 233.8424 120.575)">
	<stop  offset="0" style="stop-color:#000000;stop-opacity:0.7176"/>
	<stop  offset="1" style="stop-color:#FFFFFF;stop-opacity:0.698"/>
</linearGradient>
<path id="rect741" fill="url(#rect741_1_)" stroke="#000000" stroke-width="0.25" d="M299.304,447.914h-72.847
	c-3.645,0-6.601,2.578-6.601,5.757l0,0c0,3.18,2.956,5.757,6.601,5.757h72.847c3.646,0,6.601-2.577,6.601-5.757l0,0
	C305.904,450.492,302.949,447.914,299.304,447.914z"/>
<g enable-background="new    ">
	<path d="M357.267,55.443c0-1.466,0.217-2.696,0.651-3.691c0.323-0.733,0.766-1.391,1.326-1.973c0.56-0.583,1.173-1.015,1.841-1.296
		c0.887-0.38,1.91-0.569,3.069-0.569c2.098,0,3.777,0.658,5.036,1.973c1.26,1.315,1.89,3.145,1.89,5.488
		c0,2.324-0.625,4.142-1.875,5.454c-1.25,1.313-2.92,1.969-5.012,1.969c-2.118,0-3.802-0.653-5.052-1.959
		C357.892,59.532,357.267,57.734,357.267,55.443z M360.229,55.345c0,1.63,0.372,2.865,1.117,3.706
		c0.745,0.841,1.69,1.262,2.837,1.262c1.146,0,2.087-0.417,2.821-1.252c0.735-0.834,1.103-2.086,1.103-3.755
		c0-1.649-0.357-2.88-1.073-3.691s-1.666-1.218-2.851-1.218c-1.186,0-2.141,0.411-2.866,1.232S360.229,53.689,360.229,55.345z"/>
	<path d="M371.993,62.551l3.721-5.37l-3.564-5.056h3.331l1.826,2.867l1.924-2.867h3.206l-3.497,4.938l3.817,5.488h-3.352
		l-2.099-3.23l-2.117,3.23H371.993z"/>
	<path d="M384.369,50.711v-2.553h2.729v2.553H384.369z M384.369,62.551V52.125h2.729v10.426H384.369z"/>
	<path d="M399.358,62.551h-2.535v-1.532c-0.422,0.596-0.918,1.04-1.491,1.331s-1.151,0.437-1.734,0.437
		c-1.185,0-2.2-0.483-3.045-1.448c-0.846-0.965-1.268-2.312-1.268-4.04c0-1.767,0.411-3.11,1.233-4.03
		c0.822-0.92,1.861-1.379,3.118-1.379c1.152,0,2.149,0.484,2.992,1.453v-5.184h2.729V62.551z M392.072,57.112
		c0,1.113,0.152,1.918,0.457,2.415c0.44,0.72,1.056,1.08,1.846,1.08c0.628,0,1.162-0.27,1.603-0.81s0.661-1.347,0.661-2.42
		c0-1.198-0.214-2.06-0.642-2.587S395.022,54,394.355,54c-0.647,0-1.19,0.26-1.627,0.781
		C392.291,55.301,392.072,56.078,392.072,57.112z"/>
	<path d="M402.048,50.711v-2.553h2.729v2.553H402.048z M402.048,62.551V52.125h2.729v10.426H402.048z"/>
	<path d="M406.478,62.551v-2.15l3.866-4.487c0.635-0.733,1.104-1.253,1.409-1.561c-0.317,0.02-0.735,0.033-1.254,0.04l-3.643,0.02
		v-2.288h8.529v1.954l-3.944,4.595l-1.389,1.521c0.758-0.045,1.227-0.068,1.408-0.068h4.226v2.425H406.478z"/>
	<path d="M423.497,59.232l2.72,0.461c-0.35,1.008-0.902,1.775-1.656,2.302c-0.755,0.527-1.698,0.791-2.832,0.791
		c-1.794,0-3.121-0.592-3.982-1.777c-0.68-0.949-1.02-2.146-1.02-3.593c0-1.728,0.446-3.081,1.34-4.06
		c0.894-0.978,2.024-1.467,3.391-1.467c1.534,0,2.745,0.512,3.633,1.536c0.888,1.024,1.312,2.594,1.272,4.708h-6.839
		c0.02,0.818,0.24,1.455,0.661,1.91s0.945,0.682,1.573,0.682c0.428,0,0.787-0.118,1.078-0.354
		C423.128,60.136,423.348,59.756,423.497,59.232z M423.652,56.444c-0.02-0.798-0.224-1.405-0.612-1.821
		c-0.389-0.416-0.861-0.624-1.418-0.624c-0.596,0-1.088,0.22-1.477,0.658s-0.58,1.034-0.573,1.787H423.652z"/>
	<path d="M431.2,62.551h-2.729V52.125h2.535v1.482c0.434-0.7,0.824-1.162,1.171-1.384c0.346-0.222,0.739-0.333,1.18-0.333
		c0.622,0,1.221,0.173,1.798,0.52l-0.846,2.405c-0.46-0.301-0.888-0.452-1.282-0.452c-0.382,0-0.706,0.106-0.972,0.319
		s-0.474,0.597-0.626,1.153c-0.152,0.557-0.229,1.722-0.229,3.495V62.551z"/>
	<path d="M441.876,62.551V48.158h4.614c1.749,0,2.889,0.072,3.419,0.216c0.816,0.216,1.5,0.686,2.05,1.409
		c0.551,0.723,0.826,1.658,0.826,2.803c0,0.884-0.159,1.626-0.477,2.229c-0.317,0.603-0.72,1.075-1.209,1.419
		c-0.489,0.343-0.986,0.571-1.491,0.682c-0.687,0.137-1.681,0.206-2.982,0.206h-1.875v5.429H441.876z M444.751,50.593v4.084h1.574
		c1.133,0,1.891-0.075,2.273-0.226c0.382-0.15,0.681-0.386,0.898-0.707c0.217-0.321,0.325-0.694,0.325-1.119
		c0-0.524-0.152-0.956-0.457-1.296c-0.304-0.34-0.689-0.553-1.155-0.638c-0.344-0.065-1.033-0.098-2.069-0.098H444.751z"/>
	<path d="M461.916,62.551V60.99c-0.375,0.557-0.869,0.995-1.481,1.315c-0.611,0.321-1.258,0.481-1.938,0.481
		c-0.693,0-1.314-0.154-1.865-0.461c-0.551-0.308-0.949-0.74-1.194-1.296c-0.247-0.557-0.369-1.326-0.369-2.307v-6.598h2.729v4.791
		c0,1.466,0.05,2.364,0.15,2.695s0.283,0.592,0.549,0.786c0.266,0.193,0.603,0.29,1.01,0.29c0.467,0,0.885-0.129,1.254-0.388
		c0.369-0.259,0.621-0.58,0.757-0.962c0.137-0.383,0.204-1.32,0.204-2.813v-4.398h2.729v10.426H461.916z"/>
	<path d="M467.073,52.125h2.517v1.424c0.899-1.106,1.972-1.659,3.215-1.659c0.661,0,1.233,0.137,1.72,0.412
		c0.485,0.275,0.884,0.69,1.194,1.247c0.453-0.557,0.942-0.972,1.467-1.247s1.085-0.412,1.681-0.412
		c0.758,0,1.399,0.155,1.924,0.466c0.524,0.311,0.916,0.767,1.175,1.369c0.188,0.445,0.282,1.166,0.282,2.16v6.666h-2.729v-5.959
		c0-1.034-0.095-1.701-0.282-2.002C478.983,54.196,478.595,54,478.07,54c-0.383,0-0.742,0.118-1.079,0.354
		c-0.337,0.236-0.579,0.581-0.729,1.036c-0.148,0.455-0.223,1.173-0.223,2.155v5.007h-2.73v-5.714c0-1.014-0.048-1.669-0.146-1.963
		c-0.097-0.294-0.247-0.514-0.451-0.658S472.231,54,471.882,54c-0.421,0-0.8,0.115-1.137,0.344c-0.337,0.229-0.577,0.56-0.724,0.992
		c-0.146,0.432-0.219,1.148-0.219,2.15v5.066h-2.729V52.125z"/>
	<path d="M484.89,52.125h2.545v1.532c0.33-0.524,0.777-0.949,1.341-1.276c0.563-0.327,1.188-0.491,1.874-0.491
		c1.198,0,2.215,0.475,3.051,1.423c0.835,0.949,1.253,2.271,1.253,3.966c0,1.741-0.421,3.094-1.263,4.06s-1.862,1.448-3.061,1.448
		c-0.569,0-1.086-0.115-1.549-0.344s-0.95-0.622-1.462-1.178v5.252h-2.729V52.125z M487.59,57.161c0,1.171,0.229,2.037,0.689,2.597
		s1.021,0.839,1.681,0.839c0.635,0,1.162-0.257,1.583-0.771c0.421-0.514,0.632-1.356,0.632-2.528c0-1.093-0.217-1.904-0.65-2.435
		c-0.435-0.53-0.972-0.795-1.613-0.795c-0.667,0-1.221,0.26-1.661,0.781C487.81,55.369,487.59,56.14,487.59,57.161z"/>
</g>
<linearGradient id="rect729_1_" gradientUnits="userSpaceOnUse" x1="9.4854" y1="-1295.6699" x2="33.9018" y2="-1295.6699" gradientTransform="matrix(-3.2131 0 0 -0.3112 190.7037 81.9335)">
	<stop  offset="0" style="stop-color:#000000;stop-opacity:0.7176"/>
	<stop  offset="1" style="stop-color:#FFFFFF;stop-opacity:0.698"/>
</linearGradient>
<path id="rect729" fill="url(#rect729_1_)" stroke="#000000" stroke-width="0.25" d="M317.595,479.425H208.167
	c-3.249,0-5.883,2.578-5.883,5.757l0,0c0,3.18,2.634,5.757,5.883,5.757h109.428c3.249,0,5.883-2.577,5.883-5.757l0,0
	C323.478,482.003,320.844,479.425,317.595,479.425z"/>
<linearGradient id="rect738_1_" gradientUnits="userSpaceOnUse" x1="-4.8604" y1="-2058.9795" x2="16.5684" y2="-2058.9795" gradientTransform="matrix(-3.7734 0 0 -0.265 142.793 51.1295)">
	<stop  offset="0" style="stop-color:#000000;stop-opacity:0.7176"/>
	<stop  offset="1" style="stop-color:#FFFFFF;stop-opacity:0.698"/>
</linearGradient>
<path id="rect738" fill="url(#rect738_1_)" stroke="#000000" stroke-width="0.25" d="M339.598,591.022H186.164
	c-3.815,0-6.907,2.577-6.907,5.757l0,0c0,3.18,3.092,5.757,6.907,5.757h153.434c3.814,0,6.907-2.577,6.907-5.757l0,0
	C346.505,593.6,343.412,591.022,339.598,591.022z"/>
<linearGradient id="rect739_1_" gradientUnits="userSpaceOnUse" x1="-1.9751" y1="-1832.1182" x2="21.6858" y2="-1832.1182" gradientTransform="matrix(-3.6626 0 0 -0.273 152.2688 56.475)">
	<stop  offset="0" style="stop-color:#000000;stop-opacity:0.7176"/>
	<stop  offset="1" style="stop-color:#FFFFFF;stop-opacity:0.698"/>
</linearGradient>
<path id="rect739" fill="url(#rect739_1_)" stroke="#000000" stroke-width="0.25" d="M333.831,550.942H191.575
	c-4.224,0-7.648,2.577-7.648,5.757l0,0c0,3.179,3.424,5.756,7.648,5.756h142.256c4.224,0,7.648-2.577,7.648-5.756l0,0
	C341.479,553.52,338.055,550.942,333.831,550.942z"/>
<linearGradient id="rect740_1_" gradientUnits="userSpaceOnUse" x1="1.5015" y1="-1590.4302" x2="24.2209" y2="-1590.4302" gradientTransform="matrix(-3.4971 0 0 -0.286 166.419 65.0853)">
	<stop  offset="0" style="stop-color:#000000;stop-opacity:0.7176"/>
	<stop  offset="1" style="stop-color:#FFFFFF;stop-opacity:0.698"/>
</linearGradient>
<path id="rect740" fill="url(#rect740_1_)" stroke="#000000" stroke-width="0.25" d="M327.664,514.112H197.993
	c-3.851,0-6.972,2.577-6.972,5.757l0,0c0,3.179,3.121,5.757,6.972,5.757h129.671c3.851,0,6.972-2.578,6.972-5.757l0,0
	C334.636,516.689,331.515,514.112,327.664,514.112z"/>
<linearGradient id="rect742_1_" gradientUnits="userSpaceOnUse" x1="81.3647" y1="-411.7256" x2="100.0497" y2="-411.7256" gradientTransform="matrix(-1.971 0 0 -0.5074 296.9034 212.6592)">
	<stop  offset="0" style="stop-color:#000000;stop-opacity:0.7176"/>
	<stop  offset="1" style="stop-color:#FFFFFF;stop-opacity:0.698"/>
</linearGradient>
<path id="rect742" fill="url(#rect742_1_)" stroke="#000000" stroke-width="0.25" d="M279.459,415.798h-33.764
	c-3.227,0-5.842,2.577-5.842,5.757l0,0c0,3.18,2.615,5.757,5.842,5.757h33.764c3.227,0,5.842-2.577,5.842-5.757l0,0
	C285.301,418.375,282.686,415.798,279.459,415.798z"/>
<path id="path760" sodipodi:nodetypes="ccc" fill="none" stroke="#FF0000" stroke-width="6" stroke-linejoin="round" d="
	M132.362,152.767l0.606,181.817l72.888-0.16"/>
<g enable-background="new    ">
	<path d="M414.623,212.903l2.803,0.889c-0.43,1.563-1.145,2.723-2.145,3.481c-0.999,0.759-2.267,1.138-3.803,1.138
		c-1.901,0-3.464-0.649-4.688-1.948c-1.225-1.299-1.836-3.074-1.836-5.327c0-2.383,0.615-4.233,1.846-5.552s2.848-1.978,4.854-1.978
		c1.751,0,3.174,0.518,4.268,1.553c0.65,0.612,1.139,1.491,1.465,2.637l-2.861,0.684c-0.17-0.742-0.523-1.328-1.061-1.758
		s-1.189-0.645-1.957-0.645c-1.062,0-1.923,0.381-2.584,1.143c-0.66,0.762-0.99,1.995-0.99,3.701c0,1.81,0.325,3.099,0.977,3.867
		c0.65,0.769,1.497,1.152,2.539,1.152c0.768,0,1.429-0.244,1.982-0.732C413.984,214.72,414.382,213.951,414.623,212.903z"/>
	<path d="M419.252,212.835c0-0.911,0.225-1.794,0.674-2.646s1.085-1.504,1.908-1.953c0.824-0.449,1.744-0.674,2.76-0.674
		c1.568,0,2.854,0.51,3.857,1.528c1.002,1.019,1.504,2.307,1.504,3.862c0,1.569-0.507,2.869-1.52,3.901
		c-1.012,1.032-2.286,1.548-3.822,1.548c-0.951,0-1.857-0.215-2.721-0.645c-0.862-0.43-1.518-1.06-1.967-1.89
		S419.252,214.026,419.252,212.835z M422.064,212.981c0,1.028,0.244,1.816,0.732,2.363s1.09,0.82,1.807,0.82
		c0.716,0,1.316-0.273,1.801-0.82c0.485-0.547,0.729-1.341,0.729-2.383c0-1.016-0.243-1.797-0.729-2.344
		c-0.484-0.547-1.085-0.82-1.801-0.82c-0.717,0-1.318,0.273-1.807,0.82S422.064,211.953,422.064,212.981z"/>
	<path d="M441.537,218.167h-2.744v-5.293c0-1.12-0.059-1.844-0.176-2.173s-0.309-0.584-0.572-0.767s-0.58-0.273-0.951-0.273
		c-0.476,0-0.902,0.13-1.279,0.391c-0.378,0.261-0.637,0.605-0.777,1.035c-0.14,0.43-0.209,1.224-0.209,2.383v4.697h-2.744v-10.371
		h2.549v1.523c0.904-1.172,2.044-1.758,3.418-1.758c0.605,0,1.158,0.109,1.66,0.327c0.501,0.218,0.88,0.496,1.137,0.835
		c0.258,0.339,0.437,0.723,0.537,1.152c0.102,0.43,0.152,1.045,0.152,1.846V218.167z"/>
	<path d="M449.076,207.796v2.188h-1.875v4.18c0,0.847,0.018,1.34,0.053,1.479c0.036,0.14,0.117,0.256,0.244,0.347
		s0.282,0.137,0.465,0.137c0.254,0,0.621-0.088,1.104-0.264l0.234,2.129c-0.639,0.273-1.361,0.41-2.168,0.41
		c-0.495,0-0.941-0.083-1.338-0.249c-0.397-0.166-0.689-0.381-0.875-0.645s-0.313-0.62-0.385-1.069
		c-0.059-0.319-0.088-0.964-0.088-1.934v-4.521h-1.26v-2.188h1.26v-2.061l2.754-1.602v3.662H449.076z"/>
	<path d="M453.607,218.167h-2.744v-10.371h2.549v1.475c0.436-0.696,0.828-1.155,1.176-1.377c0.349-0.222,0.744-0.332,1.188-0.332
		c0.625,0,1.227,0.173,1.807,0.518l-0.85,2.393c-0.463-0.3-0.893-0.449-1.289-0.449c-0.385,0-0.71,0.105-0.977,0.317
		c-0.268,0.212-0.478,0.594-0.631,1.147c-0.152,0.554-0.229,1.712-0.229,3.477V218.167z"/>
	<path d="M458.129,212.835c0-0.911,0.225-1.794,0.674-2.646s1.085-1.504,1.908-1.953c0.824-0.449,1.744-0.674,2.76-0.674
		c1.568,0,2.854,0.51,3.857,1.528c1.002,1.019,1.504,2.307,1.504,3.862c0,1.569-0.507,2.869-1.52,3.901
		c-1.012,1.032-2.286,1.548-3.822,1.548c-0.951,0-1.857-0.215-2.721-0.645c-0.862-0.43-1.518-1.06-1.967-1.89
		S458.129,214.026,458.129,212.835z M460.941,212.981c0,1.028,0.244,1.816,0.732,2.363s1.09,0.82,1.807,0.82
		c0.716,0,1.316-0.273,1.801-0.82c0.485-0.547,0.729-1.341,0.729-2.383c0-1.016-0.243-1.797-0.729-2.344
		c-0.484-0.547-1.085-0.82-1.801-0.82c-0.717,0-1.318,0.273-1.807,0.82S460.941,211.953,460.941,212.981z"/>
	<path d="M470.98,218.167v-14.316h2.744v14.316H470.98z"/>
</g>
<g enable-background="new    ">
	<path d="M409.115,243.167l-5.117-14.316h3.135l3.623,10.596l3.506-10.596h3.066l-5.127,14.316H409.115z"/>
	<path d="M419.73,235.96l-2.49-0.449c0.279-1.003,0.762-1.745,1.445-2.227s1.699-0.723,3.047-0.723c1.224,0,2.135,0.145,2.734,0.435
		c0.599,0.29,1.02,0.657,1.264,1.104s0.367,1.265,0.367,2.456l-0.029,3.203c0,0.911,0.043,1.584,0.131,2.017
		s0.253,0.896,0.494,1.392h-2.715c-0.072-0.183-0.16-0.452-0.264-0.811c-0.046-0.163-0.078-0.271-0.098-0.322
		c-0.469,0.456-0.971,0.798-1.504,1.025c-0.534,0.228-1.104,0.342-1.709,0.342c-1.068,0-1.91-0.29-2.525-0.869
		s-0.922-1.312-0.922-2.197c0-0.586,0.14-1.108,0.42-1.567c0.279-0.459,0.672-0.811,1.176-1.055c0.505-0.244,1.232-0.457,2.184-0.64
		c1.282-0.241,2.171-0.466,2.666-0.674v-0.273c0-0.527-0.131-0.903-0.391-1.128c-0.261-0.225-0.752-0.337-1.475-0.337
		c-0.488,0-0.869,0.096-1.143,0.288S419.899,235.479,419.73,235.96z M423.402,238.187c-0.352,0.117-0.908,0.257-1.67,0.42
		s-1.26,0.322-1.494,0.479c-0.358,0.254-0.537,0.576-0.537,0.967c0,0.384,0.143,0.716,0.43,0.996c0.286,0.28,0.65,0.42,1.094,0.42
		c0.494,0,0.967-0.163,1.416-0.488c0.332-0.247,0.55-0.55,0.654-0.908c0.071-0.234,0.107-0.681,0.107-1.338V238.187z"/>
	<path d="M428.803,243.167v-14.316h2.744v14.316H428.803z"/>
	<path d="M437.211,243.167l-4.18-10.371h2.881l1.953,5.293l0.566,1.768c0.149-0.449,0.244-0.745,0.283-0.889
		c0.091-0.293,0.188-0.586,0.293-0.879l1.973-5.293h2.822l-4.121,10.371H437.211z"/>
	<path d="M451.488,239.866l2.734,0.459c-0.352,1.003-0.907,1.766-1.666,2.29c-0.758,0.524-1.707,0.786-2.846,0.786
		c-1.804,0-3.139-0.589-4.004-1.768c-0.684-0.944-1.025-2.136-1.025-3.574c0-1.719,0.449-3.064,1.348-4.038s2.034-1.46,3.408-1.46
		c1.543,0,2.76,0.51,3.652,1.528c0.892,1.019,1.318,2.58,1.279,4.683h-6.875c0.02,0.813,0.24,1.447,0.664,1.899
		c0.423,0.452,0.95,0.679,1.582,0.679c0.43,0,0.791-0.117,1.084-0.352S451.338,240.387,451.488,239.866z M451.645,237.093
		c-0.02-0.794-0.225-1.398-0.615-1.812s-0.866-0.62-1.426-0.62c-0.6,0-1.094,0.218-1.484,0.654s-0.583,1.028-0.576,1.777H451.645z"
		/>
	<path d="M455.639,240.208l2.754-0.42c0.117,0.534,0.354,0.939,0.713,1.216c0.357,0.276,0.859,0.415,1.504,0.415
		c0.709,0,1.243-0.13,1.602-0.391c0.24-0.183,0.361-0.427,0.361-0.732c0-0.208-0.065-0.381-0.195-0.518
		c-0.137-0.13-0.443-0.251-0.918-0.361c-2.214-0.488-3.617-0.935-4.209-1.338c-0.82-0.56-1.23-1.338-1.23-2.334
		c0-0.898,0.354-1.653,1.064-2.266c0.709-0.612,1.81-0.918,3.301-0.918c1.419,0,2.474,0.231,3.164,0.693
		c0.689,0.462,1.165,1.146,1.426,2.051l-2.588,0.479c-0.111-0.403-0.321-0.713-0.631-0.928c-0.309-0.215-0.75-0.322-1.322-0.322
		c-0.723,0-1.24,0.101-1.553,0.303c-0.209,0.144-0.313,0.329-0.313,0.557c0,0.195,0.091,0.361,0.273,0.498
		c0.247,0.183,1.102,0.439,2.563,0.771c1.462,0.332,2.482,0.739,3.063,1.221c0.572,0.488,0.859,1.169,0.859,2.041
		c0,0.95-0.397,1.768-1.191,2.451c-0.795,0.684-1.97,1.025-3.525,1.025c-1.413,0-2.531-0.286-3.355-0.859
		C456.431,241.969,455.893,241.191,455.639,240.208z"/>
</g>
<g enable-background="new    ">
	<path d="M227.756,62.646V50.752h-4.248V48.33h11.377v2.422h-4.238v11.895H227.756z"/>
	<path d="M242.072,62.646v-1.553c-0.378,0.554-0.875,0.989-1.49,1.309s-1.264,0.479-1.947,0.479c-0.697,0-1.322-0.153-1.875-0.459
		c-0.554-0.306-0.954-0.735-1.201-1.289c-0.248-0.554-0.371-1.318-0.371-2.295v-6.563h2.744v4.766c0,1.458,0.05,2.352,0.15,2.681
		c0.102,0.329,0.285,0.589,0.553,0.781c0.267,0.192,0.605,0.288,1.016,0.288c0.469,0,0.889-0.129,1.26-0.386
		s0.625-0.576,0.762-0.957s0.205-1.313,0.205-2.798v-4.375h2.744v10.371H242.072z"/>
	<path d="M250.09,62.646h-2.744V52.275h2.549v1.475c0.436-0.696,0.828-1.155,1.176-1.377c0.349-0.222,0.744-0.332,1.188-0.332
		c0.625,0,1.227,0.173,1.807,0.518l-0.85,2.393c-0.463-0.3-0.893-0.449-1.289-0.449c-0.385,0-0.71,0.105-0.977,0.317
		c-0.268,0.212-0.478,0.594-0.631,1.147c-0.152,0.554-0.229,1.712-0.229,3.477V62.646z"/>
	<path d="M255.129,62.646V48.33h2.744v5.156c0.846-0.964,1.849-1.445,3.008-1.445c1.263,0,2.308,0.457,3.135,1.372
		c0.826,0.915,1.24,2.229,1.24,3.94c0,1.771-0.422,3.135-1.266,4.092c-0.843,0.957-1.866,1.436-3.07,1.436
		c-0.593,0-1.178-0.148-1.754-0.444s-1.072-0.734-1.488-1.313v1.523H255.129z M257.854,57.236c0,1.074,0.169,1.868,0.508,2.383
		c0.475,0.729,1.106,1.094,1.895,1.094c0.605,0,1.121-0.259,1.547-0.776c0.427-0.518,0.641-1.333,0.641-2.446
		c0-1.185-0.215-2.039-0.645-2.563s-0.98-0.786-1.65-0.786c-0.658,0-1.205,0.256-1.641,0.767
		C258.071,55.418,257.854,56.194,257.854,57.236z"/>
	<path d="M267.463,50.869V48.33h2.744v2.539H267.463z M267.463,62.646V52.275h2.744v10.371H267.463z"/>
	<path d="M282.453,62.646h-2.744v-5.293c0-1.12-0.059-1.844-0.176-2.173s-0.309-0.584-0.572-0.767s-0.58-0.273-0.951-0.273
		c-0.476,0-0.902,0.13-1.279,0.391c-0.378,0.261-0.637,0.605-0.777,1.035c-0.14,0.43-0.209,1.224-0.209,2.383v4.697H273V52.275
		h2.549v1.523c0.904-1.172,2.044-1.758,3.418-1.758c0.605,0,1.158,0.109,1.66,0.327c0.501,0.218,0.88,0.496,1.137,0.835
		c0.258,0.339,0.437,0.723,0.537,1.152c0.102,0.43,0.152,1.045,0.152,1.846V62.646z"/>
	<path d="M291.242,59.346l2.734,0.459c-0.352,1.003-0.907,1.766-1.666,2.29c-0.758,0.524-1.707,0.786-2.846,0.786
		c-1.804,0-3.139-0.589-4.004-1.768c-0.684-0.944-1.025-2.136-1.025-3.574c0-1.719,0.449-3.064,1.348-4.038s2.034-1.46,3.408-1.46
		c1.543,0,2.76,0.51,3.652,1.528c0.892,1.019,1.318,2.58,1.279,4.683h-6.875c0.02,0.813,0.24,1.447,0.664,1.899
		c0.423,0.452,0.95,0.679,1.582,0.679c0.43,0,0.791-0.117,1.084-0.352S291.092,59.866,291.242,59.346z M291.398,56.572
		c-0.02-0.794-0.225-1.398-0.615-1.812s-0.866-0.62-1.426-0.62c-0.6,0-1.094,0.218-1.484,0.654s-0.583,1.028-0.576,1.777H291.398z"
		/>
</g>
<g enable-background="new    ">
	<path d="M142.063,418.192v-14.316h2.891v5.635h5.664v-5.635h2.891v14.316h-2.891v-6.26h-5.664v6.26H142.063z"/>
	<path d="M162.483,414.892l2.734,0.459c-0.352,1.003-0.907,1.766-1.665,2.29s-1.708,0.786-2.847,0.786
		c-1.803,0-3.138-0.589-4.004-1.768c-0.684-0.944-1.025-2.136-1.025-3.574c0-1.719,0.449-3.064,1.348-4.038s2.035-1.46,3.408-1.46
		c1.543,0,2.76,0.51,3.652,1.528s1.318,2.58,1.279,4.683h-6.875c0.02,0.813,0.241,1.447,0.664,1.899s0.951,0.679,1.582,0.679
		c0.43,0,0.791-0.117,1.084-0.352S162.333,415.412,162.483,414.892z M162.64,412.118c-0.02-0.794-0.225-1.398-0.615-1.812
		s-0.866-0.62-1.426-0.62c-0.599,0-1.094,0.218-1.484,0.654s-0.583,1.028-0.576,1.777H162.64z"/>
	<path d="M169.651,410.985l-2.49-0.449c0.28-1.003,0.762-1.745,1.445-2.227s1.699-0.723,3.047-0.723
		c1.224,0,2.135,0.145,2.734,0.435s1.021,0.657,1.265,1.104s0.366,1.265,0.366,2.456l-0.029,3.203c0,0.911,0.044,1.584,0.132,2.017
		s0.252,0.896,0.493,1.392h-2.715c-0.072-0.183-0.16-0.452-0.264-0.811c-0.045-0.163-0.078-0.271-0.098-0.322
		c-0.469,0.456-0.97,0.798-1.504,1.025s-1.104,0.342-1.709,0.342c-1.068,0-1.909-0.29-2.524-0.869s-0.923-1.312-0.923-2.197
		c0-0.586,0.14-1.108,0.42-1.567s0.672-0.811,1.177-1.055s1.232-0.457,2.183-0.64c1.283-0.241,2.171-0.466,2.666-0.674v-0.273
		c0-0.527-0.13-0.903-0.391-1.128s-0.752-0.337-1.475-0.337c-0.488,0-0.869,0.096-1.143,0.288S169.821,410.504,169.651,410.985z
		 M173.323,413.212c-0.352,0.117-0.908,0.257-1.67,0.42s-1.26,0.322-1.494,0.479c-0.358,0.254-0.537,0.576-0.537,0.967
		c0,0.384,0.143,0.716,0.43,0.996s0.651,0.42,1.094,0.42c0.495,0,0.967-0.163,1.416-0.488c0.332-0.247,0.55-0.55,0.654-0.908
		c0.072-0.234,0.107-0.681,0.107-1.338V413.212z"/>
	<path d="M183.479,407.821v2.188h-1.875v4.18c0,0.847,0.018,1.34,0.054,1.479s0.117,0.256,0.244,0.347s0.282,0.137,0.464,0.137
		c0.254,0,0.622-0.088,1.104-0.264l0.234,2.129c-0.638,0.273-1.361,0.41-2.168,0.41c-0.495,0-0.941-0.083-1.338-0.249
		s-0.688-0.381-0.874-0.645s-0.314-0.62-0.386-1.069c-0.059-0.319-0.088-0.964-0.088-1.934v-4.521h-1.26v-2.188h1.26v-2.061
		l2.754-1.602v3.662H183.479z"/>
</g>
<g enable-background="new    ">
	<path d="M112.879,442.643v-14.316h10.615v2.422h-7.725v3.174h7.188v2.412h-7.188v3.896h7.998v2.412H112.879z"/>
	<path d="M124.881,442.643l3.74-5.342l-3.584-5.029h3.35l1.836,2.852l1.934-2.852h3.223l-3.516,4.912l3.838,5.459h-3.369
		l-2.109-3.213l-2.129,3.213H124.881z"/>
	<path d="M146.365,435.338l-2.705,0.488c-0.091-0.54-0.298-0.947-0.62-1.221s-0.741-0.41-1.255-0.41
		c-0.684,0-1.229,0.236-1.636,0.708s-0.61,1.262-0.61,2.368c0,1.23,0.207,2.1,0.62,2.607s0.968,0.762,1.665,0.762
		c0.521,0,0.947-0.148,1.279-0.444s0.566-0.806,0.703-1.528l2.695,0.459c-0.28,1.237-0.817,2.171-1.611,2.803
		s-1.859,0.947-3.193,0.947c-1.517,0-2.726-0.479-3.628-1.436s-1.353-2.282-1.353-3.975c0-1.712,0.453-3.045,1.357-3.999
		s2.129-1.431,3.672-1.431c1.263,0,2.267,0.271,3.013,0.815S146.04,434.225,146.365,435.338z"/>
	<path d="M151.18,428.326v5.264c0.885-1.035,1.943-1.553,3.174-1.553c0.631,0,1.201,0.117,1.709,0.352s0.89,0.534,1.147,0.898
		s0.433,0.769,0.527,1.211s0.142,1.13,0.142,2.061v6.084h-2.744v-5.479c0-1.087-0.052-1.777-0.156-2.07s-0.288-0.525-0.552-0.698
		s-0.594-0.259-0.991-0.259c-0.456,0-0.863,0.11-1.221,0.332s-0.62,0.555-0.786,1.001s-0.249,1.105-0.249,1.978v5.195h-2.744
		v-14.316H151.18z"/>
	<path d="M162.713,435.436l-2.49-0.449c0.28-1.003,0.762-1.745,1.445-2.227s1.699-0.723,3.047-0.723
		c1.224,0,2.135,0.145,2.734,0.435s1.021,0.657,1.265,1.104s0.366,1.265,0.366,2.456l-0.029,3.203c0,0.911,0.044,1.584,0.132,2.017
		s0.252,0.896,0.493,1.392h-2.715c-0.072-0.183-0.16-0.452-0.264-0.811c-0.045-0.163-0.078-0.271-0.098-0.322
		c-0.469,0.456-0.97,0.798-1.504,1.025s-1.104,0.342-1.709,0.342c-1.068,0-1.909-0.29-2.524-0.869s-0.923-1.312-0.923-2.197
		c0-0.586,0.14-1.108,0.42-1.567s0.672-0.811,1.177-1.055s1.232-0.457,2.183-0.64c1.283-0.241,2.171-0.466,2.666-0.674v-0.273
		c0-0.527-0.13-0.903-0.391-1.128s-0.752-0.337-1.475-0.337c-0.488,0-0.869,0.096-1.143,0.288S162.882,434.954,162.713,435.436z
		 M166.385,437.662c-0.352,0.117-0.908,0.257-1.67,0.42s-1.26,0.322-1.494,0.479c-0.358,0.254-0.537,0.576-0.537,0.967
		c0,0.384,0.143,0.716,0.43,0.996s0.651,0.42,1.094,0.42c0.495,0,0.967-0.163,1.416-0.488c0.332-0.247,0.55-0.55,0.654-0.908
		c0.072-0.234,0.107-0.681,0.107-1.338V437.662z"/>
	<path d="M181.219,442.643h-2.744v-5.293c0-1.12-0.059-1.844-0.176-2.173s-0.308-0.584-0.571-0.767s-0.581-0.273-0.952-0.273
		c-0.475,0-0.902,0.13-1.279,0.391s-0.636,0.605-0.776,1.035s-0.21,1.224-0.21,2.383v4.697h-2.744v-10.371h2.549v1.523
		c0.905-1.172,2.044-1.758,3.418-1.758c0.605,0,1.159,0.109,1.66,0.327s0.88,0.496,1.138,0.835s0.436,0.723,0.537,1.152
		s0.151,1.045,0.151,1.846V442.643z"/>
	<path d="M183.748,443.326l3.135,0.381c0.052,0.364,0.172,0.615,0.361,0.752c0.26,0.195,0.67,0.293,1.23,0.293
		c0.716,0,1.253-0.107,1.611-0.322c0.241-0.144,0.423-0.374,0.547-0.693c0.084-0.228,0.127-0.647,0.127-1.26v-1.514
		c-0.82,1.12-1.855,1.68-3.105,1.68c-1.393,0-2.497-0.589-3.311-1.768c-0.638-0.931-0.957-2.09-0.957-3.477
		c0-1.738,0.418-3.066,1.255-3.984s1.876-1.377,3.12-1.377c1.283,0,2.34,0.563,3.174,1.689v-1.455h2.568v9.307
		c0,1.224-0.101,2.139-0.303,2.744s-0.485,1.081-0.85,1.426s-0.851,0.615-1.46,0.811s-1.378,0.293-2.31,0.293
		c-1.758,0-3.004-0.301-3.74-0.903s-1.104-1.365-1.104-2.29C183.738,443.567,183.742,443.456,183.748,443.326z M186.199,437.242
		c0,1.101,0.213,1.906,0.64,2.417s0.952,0.767,1.577,0.767c0.67,0,1.237-0.262,1.699-0.786s0.693-1.301,0.693-2.329
		c0-1.074-0.221-1.872-0.664-2.393s-1.002-0.781-1.68-0.781c-0.658,0-1.2,0.256-1.626,0.767S186.199,436.194,186.199,437.242z"/>
	<path d="M202.225,439.342l2.734,0.459c-0.352,1.003-0.907,1.766-1.665,2.29s-1.708,0.786-2.847,0.786
		c-1.803,0-3.138-0.589-4.004-1.768c-0.684-0.944-1.025-2.136-1.025-3.574c0-1.719,0.449-3.064,1.348-4.038s2.035-1.46,3.408-1.46
		c1.543,0,2.76,0.51,3.652,1.528s1.318,2.58,1.279,4.683h-6.875c0.02,0.813,0.241,1.447,0.664,1.899s0.951,0.679,1.582,0.679
		c0.43,0,0.791-0.117,1.084-0.352S202.075,439.862,202.225,439.342z M202.381,436.568c-0.02-0.794-0.225-1.398-0.615-1.812
		s-0.866-0.62-1.426-0.62c-0.599,0-1.094,0.218-1.484,0.654s-0.583,1.028-0.576,1.777H202.381z"/>
	<path d="M209.969,442.643h-2.744v-10.371h2.549v1.475c0.436-0.696,0.829-1.155,1.177-1.377s0.744-0.332,1.187-0.332
		c0.625,0,1.227,0.173,1.807,0.518l-0.85,2.393c-0.462-0.3-0.892-0.449-1.289-0.449c-0.384,0-0.709,0.105-0.977,0.317
		s-0.477,0.594-0.63,1.147s-0.229,1.712-0.229,3.477V442.643z"/>
</g>
<g enable-background="new    ">
	<path d="M222.193,347.729l1.705,0.431c-0.357,1.4-1,2.469-1.929,3.204s-2.064,1.103-3.406,1.103c-1.389,0-2.518-0.282-3.388-0.849
		c-0.87-0.564-1.532-1.384-1.986-2.456s-0.681-2.224-0.681-3.454c0-1.342,0.256-2.512,0.769-3.512
		c0.513-0.998,1.242-1.758,2.188-2.275c0.946-0.52,1.988-0.778,3.125-0.778c1.289,0,2.373,0.328,3.251,0.984
		s1.492,1.579,1.838,2.769l-1.68,0.396c-0.299-0.938-0.732-1.62-1.301-2.048c-0.568-0.428-1.283-0.642-2.144-0.642
		c-0.99,0-1.818,0.237-2.483,0.712s-1.132,1.111-1.402,1.912c-0.27,0.799-0.404,1.624-0.404,2.474c0,1.096,0.16,2.052,0.479,2.87
		c0.319,0.816,0.816,1.428,1.49,1.832s1.403,0.606,2.188,0.606c0.955,0,1.764-0.275,2.426-0.826
		C221.512,349.631,221.959,348.813,222.193,347.729z"/>
	<path d="M225.209,347.58c0-1.729,0.48-3.009,1.441-3.841c0.803-0.691,1.781-1.037,2.936-1.037c1.283,0,2.332,0.421,3.146,1.262
		s1.221,2.002,1.221,3.484c0,1.201-0.18,2.146-0.54,2.834c-0.36,0.689-0.885,1.224-1.573,1.604s-1.439,0.571-2.254,0.571
		c-1.307,0-2.363-0.419-3.169-1.257S225.209,349.156,225.209,347.58z M226.834,347.58c0,1.195,0.262,2.091,0.783,2.685
		c0.521,0.596,1.178,0.893,1.969,0.893c0.785,0,1.438-0.299,1.959-0.896s0.783-1.509,0.783-2.733c0-1.154-0.263-2.028-0.787-2.624
		c-0.524-0.594-1.176-0.892-1.955-0.892c-0.791,0-1.447,0.296-1.969,0.888S226.834,346.385,226.834,347.58z"/>
	<path d="M235.809,352.247v-9.334h1.414v1.31c0.293-0.457,0.684-0.824,1.17-1.103s1.039-0.418,1.66-0.418
		c0.691,0,1.259,0.144,1.701,0.431s0.754,0.688,0.936,1.204c0.738-1.09,1.699-1.635,2.883-1.635c0.926,0,1.639,0.257,2.137,0.77
		s0.746,1.302,0.746,2.368v6.407h-1.572v-5.88c0-0.633-0.052-1.088-0.154-1.366s-0.289-0.503-0.559-0.673s-0.586-0.255-0.949-0.255
		c-0.656,0-1.201,0.219-1.635,0.654c-0.434,0.438-0.65,1.136-0.65,2.097v5.423h-1.582v-6.064c0-0.703-0.129-1.23-0.387-1.582
		s-0.68-0.527-1.266-0.527c-0.445,0-0.856,0.117-1.234,0.352s-0.652,0.577-0.822,1.028s-0.254,1.102-0.254,1.951v4.843H235.809z"/>
	<path d="M252.262,352.247h-1.469v-12.885h1.582v4.597c0.668-0.838,1.521-1.257,2.559-1.257c0.574,0,1.117,0.116,1.63,0.348
		s0.935,0.557,1.266,0.975c0.331,0.42,0.591,0.925,0.778,1.517s0.281,1.225,0.281,1.898c0,1.6-0.396,2.836-1.188,3.709
		s-1.74,1.31-2.848,1.31c-1.102,0-1.965-0.46-2.592-1.38V352.247z M252.244,347.51c0,1.119,0.152,1.928,0.457,2.426
		c0.498,0.814,1.172,1.222,2.021,1.222c0.691,0,1.289-0.3,1.793-0.9s0.756-1.496,0.756-2.686c0-1.219-0.242-2.118-0.726-2.698
		s-1.067-0.87-1.753-0.87c-0.691,0-1.289,0.301-1.793,0.9C252.496,345.505,252.244,346.373,252.244,347.51z"/>
	<path d="M266.93,352.247v-1.371c-0.727,1.055-1.713,1.582-2.961,1.582c-0.551,0-1.065-0.105-1.543-0.316s-0.832-0.476-1.063-0.795
		s-0.394-0.711-0.487-1.174c-0.064-0.311-0.098-0.803-0.098-1.477v-5.783h1.582v5.177c0,0.826,0.033,1.383,0.098,1.67
		c0.1,0.416,0.311,0.743,0.633,0.979c0.322,0.238,0.721,0.356,1.195,0.356s0.92-0.121,1.336-0.364s0.71-0.574,0.883-0.994
		c0.173-0.418,0.26-1.026,0.26-1.823v-5.001h1.582v9.334H266.93z"/>
	<path d="M270.191,349.461l1.564-0.246c0.088,0.627,0.332,1.107,0.733,1.441s0.962,0.501,1.683,0.501
		c0.727,0,1.266-0.147,1.617-0.443s0.527-0.644,0.527-1.042c0-0.357-0.154-0.639-0.465-0.844c-0.217-0.141-0.756-0.319-1.617-0.536
		c-1.16-0.293-1.965-0.546-2.413-0.76s-0.788-0.51-1.02-0.889c-0.231-0.377-0.347-0.795-0.347-1.252
		c0-0.416,0.095-0.801,0.285-1.156c0.19-0.354,0.449-0.648,0.777-0.883c0.246-0.182,0.582-0.335,1.007-0.461s0.88-0.189,1.366-0.189
		c0.732,0,1.376,0.105,1.93,0.316s0.963,0.496,1.227,0.857c0.264,0.359,0.445,0.842,0.545,1.445l-1.547,0.211
		c-0.07-0.48-0.274-0.855-0.611-1.125s-0.813-0.404-1.428-0.404c-0.727,0-1.246,0.12-1.557,0.36s-0.465,0.521-0.465,0.844
		c0,0.205,0.064,0.39,0.193,0.554c0.129,0.17,0.33,0.311,0.605,0.422c0.158,0.059,0.625,0.193,1.398,0.404
		c1.119,0.299,1.899,0.544,2.342,0.734s0.789,0.467,1.041,0.83s0.379,0.814,0.379,1.354c0,0.527-0.154,1.023-0.462,1.49
		c-0.308,0.465-0.751,0.826-1.331,1.08c-0.58,0.256-1.236,0.383-1.969,0.383c-1.213,0-2.138-0.252-2.773-0.756
		S270.367,350.451,270.191,349.461z"/>
	<path d="M283.277,350.832l0.229,1.397c-0.445,0.094-0.844,0.141-1.195,0.141c-0.574,0-1.02-0.091-1.336-0.272
		s-0.539-0.42-0.668-0.716s-0.193-0.919-0.193-1.868v-5.37h-1.16v-1.23h1.16v-2.312l1.574-0.949v3.261h1.59v1.23h-1.59v5.458
		c0,0.451,0.027,0.741,0.083,0.87s0.146,0.231,0.272,0.308s0.307,0.114,0.541,0.114C282.76,350.894,282.99,350.873,283.277,350.832z
		"/>
	<path d="M284.834,341.182v-1.819h1.582v1.819H284.834z M284.834,352.247v-9.334h1.582v9.334H284.834z"/>
	<path d="M288.234,347.58c0-1.729,0.48-3.009,1.441-3.841c0.803-0.691,1.781-1.037,2.936-1.037c1.283,0,2.332,0.421,3.146,1.262
		s1.223,2.002,1.223,3.484c0,1.201-0.181,2.146-0.541,2.834c-0.36,0.689-0.885,1.224-1.573,1.604s-1.44,0.571-2.255,0.571
		c-1.307,0-2.362-0.419-3.168-1.257S288.234,349.156,288.234,347.58z M289.861,347.58c0,1.195,0.26,2.091,0.781,2.685
		c0.521,0.596,1.178,0.893,1.969,0.893c0.785,0,1.439-0.299,1.961-0.896s0.781-1.509,0.781-2.733c0-1.154-0.262-2.028-0.786-2.624
		c-0.524-0.594-1.177-0.892-1.956-0.892c-0.791,0-1.447,0.296-1.969,0.888S289.861,346.385,289.861,347.58z"/>
	<path d="M298.834,352.247v-9.334h1.424v1.327c0.686-1.025,1.676-1.538,2.971-1.538c0.563,0,1.08,0.102,1.552,0.303
		c0.472,0.203,0.825,0.468,1.06,0.796s0.398,0.718,0.492,1.169c0.059,0.293,0.088,0.806,0.088,1.538v5.739h-1.582v-5.678
		c0-0.645-0.063-1.126-0.186-1.445s-0.341-0.574-0.654-0.766c-0.313-0.189-0.682-0.285-1.104-0.285
		c-0.674,0-1.255,0.214-1.744,0.642s-0.734,1.239-0.734,2.435v5.098H298.834z"/>
</g>
<g enable-background="new    ">
	<path d="M232.195,365.729l1.705,0.431c-0.357,1.4-1,2.469-1.929,3.204s-2.063,1.103-3.405,1.103c-1.389,0-2.519-0.282-3.389-0.849
		c-0.87-0.564-1.532-1.384-1.986-2.456s-0.682-2.224-0.682-3.454c0-1.342,0.257-2.512,0.77-3.512
		c0.513-0.998,1.242-1.758,2.188-2.275c0.946-0.52,1.987-0.778,3.124-0.778c1.289,0,2.373,0.328,3.252,0.984
		s1.492,1.579,1.838,2.769l-1.68,0.396c-0.299-0.938-0.732-1.62-1.301-2.048s-1.283-0.642-2.145-0.642
		c-0.99,0-1.817,0.237-2.482,0.712s-1.133,1.111-1.402,1.912c-0.27,0.799-0.404,1.624-0.404,2.474c0,1.096,0.16,2.052,0.479,2.87
		c0.319,0.816,0.815,1.428,1.489,1.832s1.404,0.606,2.189,0.606c0.955,0,1.764-0.275,2.426-0.826S231.961,366.813,232.195,365.729z"
		/>
	<path d="M235.799,370.247v-12.885h1.582v4.623c0.738-0.855,1.67-1.283,2.795-1.283c0.691,0,1.293,0.137,1.803,0.408
		c0.51,0.273,0.874,0.649,1.094,1.13s0.33,1.178,0.33,2.092v5.915h-1.582v-5.915c0-0.791-0.172-1.366-0.515-1.728
		c-0.343-0.359-0.827-0.54-1.454-0.54c-0.469,0-0.91,0.122-1.323,0.364c-0.413,0.244-0.708,0.573-0.884,0.989
		s-0.264,0.99-0.264,1.723v5.106H235.799z"/>
	<path d="M251.9,369.096c-0.586,0.498-1.149,0.85-1.691,1.055s-1.123,0.308-1.744,0.308c-1.025,0-1.814-0.25-2.365-0.752
		c-0.551-0.5-0.826-1.141-0.826-1.92c0-0.457,0.104-0.875,0.313-1.252c0.208-0.379,0.48-0.682,0.817-0.91s0.716-0.401,1.138-0.519
		c0.311-0.082,0.779-0.161,1.406-0.237c1.277-0.152,2.219-0.334,2.822-0.545c0.006-0.217,0.008-0.354,0.008-0.413
		c0-0.645-0.148-1.099-0.447-1.362c-0.404-0.357-1.006-0.536-1.803-0.536c-0.744,0-1.293,0.131-1.647,0.392
		s-0.616,0.722-0.786,1.384l-1.547-0.211c0.141-0.662,0.371-1.196,0.693-1.604c0.322-0.406,0.789-0.721,1.398-0.939
		c0.609-0.221,1.314-0.33,2.117-0.33c0.797,0,1.445,0.094,1.943,0.281s0.863,0.424,1.098,0.707c0.234,0.285,0.398,0.644,0.492,1.077
		c0.053,0.27,0.08,0.756,0.08,1.459v2.109c0,1.471,0.033,2.401,0.101,2.79c0.067,0.391,0.2,0.764,0.399,1.121h-1.652
		C252.053,369.919,251.947,369.535,251.9,369.096z M251.77,365.563c-0.574,0.234-1.436,0.434-2.584,0.598
		c-0.65,0.094-1.111,0.199-1.381,0.316s-0.477,0.289-0.623,0.515s-0.221,0.476-0.221,0.751c0,0.422,0.16,0.773,0.479,1.055
		s0.786,0.422,1.401,0.422c0.609,0,1.152-0.133,1.627-0.399s0.822-0.632,1.045-1.095c0.17-0.357,0.256-0.885,0.256-1.582V365.563z"
		/>
	<path d="M255.82,370.247v-9.334h1.416v1.31c0.293-0.457,0.682-0.824,1.168-1.103s1.041-0.418,1.662-0.418
		c0.691,0,1.258,0.144,1.7,0.431s0.755,0.688,0.937,1.204c0.738-1.09,1.699-1.635,2.883-1.635c0.926,0,1.637,0.257,2.135,0.77
		s0.748,1.302,0.748,2.368v6.407h-1.574v-5.88c0-0.633-0.051-1.088-0.153-1.366s-0.288-0.503-0.558-0.673s-0.586-0.255-0.949-0.255
		c-0.656,0-1.201,0.219-1.635,0.654c-0.434,0.438-0.65,1.136-0.65,2.097v5.423h-1.582v-6.064c0-0.703-0.129-1.23-0.387-1.582
		s-0.68-0.527-1.266-0.527c-0.445,0-0.857,0.117-1.235,0.352s-0.651,0.577-0.821,1.028s-0.256,1.102-0.256,1.951v4.843H255.82z"/>
	<path d="M272.273,370.247h-1.467v-12.885h1.582v4.597c0.668-0.838,1.52-1.257,2.557-1.257c0.574,0,1.118,0.116,1.631,0.348
		s0.935,0.557,1.266,0.975c0.331,0.42,0.59,0.925,0.777,1.517s0.281,1.225,0.281,1.898c0,1.6-0.395,2.836-1.186,3.709
		s-1.74,1.31-2.848,1.31c-1.102,0-1.967-0.46-2.594-1.38V370.247z M272.256,365.51c0,1.119,0.152,1.928,0.457,2.426
		c0.498,0.814,1.172,1.222,2.021,1.222c0.691,0,1.289-0.3,1.793-0.9s0.756-1.496,0.756-2.686c0-1.219-0.241-2.118-0.725-2.698
		s-1.068-0.87-1.754-0.87c-0.691,0-1.289,0.301-1.793,0.9C272.508,363.505,272.256,364.373,272.256,365.51z"/>
	<path d="M287.215,367.241l1.635,0.202c-0.258,0.955-0.734,1.696-1.432,2.224s-1.588,0.791-2.672,0.791
		c-1.365,0-2.448-0.42-3.248-1.262c-0.8-0.84-1.199-2.02-1.199-3.537c0-1.57,0.404-2.789,1.213-3.656s1.857-1.301,3.146-1.301
		c1.248,0,2.268,0.425,3.059,1.274s1.186,2.045,1.186,3.586c0,0.094-0.002,0.234-0.008,0.422h-6.961
		c0.059,1.025,0.348,1.811,0.869,2.355s1.172,0.817,1.951,0.817c0.58,0,1.076-0.152,1.486-0.457S286.975,367.909,287.215,367.241z
		 M282.021,364.684h5.211c-0.07-0.785-0.27-1.374-0.598-1.767c-0.504-0.609-1.156-0.914-1.959-0.914
		c-0.727,0-1.338,0.243-1.833,0.729S282.074,363.869,282.021,364.684z"/>
	<path d="M290.818,370.247v-9.334h1.424v1.415c0.363-0.662,0.699-1.099,1.007-1.31s0.646-0.316,1.015-0.316
		c0.533,0,1.076,0.17,1.627,0.51l-0.545,1.468c-0.387-0.229-0.773-0.343-1.16-0.343c-0.346,0-0.656,0.104-0.932,0.313
		s-0.473,0.496-0.59,0.865c-0.176,0.563-0.264,1.178-0.264,1.846v4.887H290.818z"/>
</g>
<path id="path827" fill="#FF0000" stroke="#FF0000" stroke-width="2.5" d="M264.478,418.192l10.438,3.567l-10.367,3.09
	L264.478,418.192L264.478,418.192z"/>
<path id="path828" fill="#FF0000" stroke="#FF0000" stroke-width="2.5" d="M249.434,450.758l10.438,3.567l-10.367,3.089
	L249.434,450.758L249.434,450.758z"/>
<path id="path829" fill="#FF0000" stroke="#FF0000" stroke-width="2.5" d="M273.745,482.804l10.439,3.568l-10.367,3.089
	L273.745,482.804L273.745,482.804z"/>
<path id="path830" fill="#FF0000" stroke="#FF0000" stroke-width="2.5" d="M216.746,516.316l10.439,3.567l-10.367,3.089
	L216.746,516.316L216.746,516.316z"/>
<path id="path831" fill="#FF0000" stroke="#FF0000" stroke-width="2.5" d="M282.516,553.595l10.439,3.567l-10.367,3.089
	L282.516,553.595L282.516,553.595z"/>
<path id="path832" fill="#FF0000" stroke="#FF0000" stroke-width="2.5" d="M210.822,593.443l10.439,3.567l-10.367,3.09
	L210.822,593.443L210.822,593.443z"/>
<path id="path778" sodipodi:nodetypes="ccc" fill="none" stroke="#00FF00" stroke-width="6" stroke-linejoin="round" d="
	M414.802,114.465h48.375l-0.568-41.556"/>
<path id="path779" fill="#00FF00" stroke="#00FF00" stroke-width="6" d="M425.272,111.719l-10.439,3.567l10.367,3.089
	L425.272,111.719L425.272,111.719z"/>
<g enable-background="new    ">
	<path d="M234.117,627.24v-14.316h2.813l5.859,9.561v-9.561h2.686v14.316h-2.9l-5.771-9.336v9.336H234.117z"/>
	<path d="M247.877,621.908c0-0.911,0.225-1.794,0.674-2.646s1.085-1.504,1.908-1.953c0.824-0.449,1.744-0.674,2.76-0.674
		c1.568,0,2.854,0.51,3.857,1.528c1.002,1.019,1.504,2.307,1.504,3.862c0,1.569-0.507,2.869-1.52,3.901
		c-1.012,1.032-2.286,1.548-3.822,1.548c-0.951,0-1.857-0.215-2.721-0.645c-0.862-0.43-1.518-1.06-1.967-1.89
		S247.877,623.1,247.877,621.908z M250.689,622.055c0,1.028,0.244,1.816,0.732,2.363s1.09,0.82,1.807,0.82
		c0.716,0,1.316-0.273,1.801-0.82c0.485-0.547,0.729-1.341,0.729-2.383c0-1.016-0.243-1.797-0.729-2.344
		c-0.484-0.547-1.085-0.82-1.801-0.82c-0.717,0-1.318,0.273-1.807,0.82S250.689,621.026,250.689,622.055z"/>
	<path d="M259.625,627.24v-2.139l3.887-4.463c0.638-0.729,1.109-1.247,1.416-1.553c-0.319,0.02-0.739,0.032-1.26,0.039l-3.662,0.02
		v-2.275h8.574v1.943l-3.965,4.57l-1.396,1.514c0.762-0.046,1.233-0.068,1.416-0.068h4.248v2.412H259.625z"/>
	<path d="M269.625,627.24v-2.139l3.887-4.463c0.638-0.729,1.109-1.247,1.416-1.553c-0.319,0.02-0.739,0.032-1.26,0.039l-3.662,0.02
		v-2.275h8.574v1.943l-3.965,4.57l-1.396,1.514c0.762-0.046,1.233-0.068,1.416-0.068h4.248v2.412H269.625z"/>
	<path d="M280.729,627.24v-14.316h2.744v14.316H280.729z"/>
	<path d="M292.291,623.939l2.734,0.459c-0.352,1.003-0.907,1.766-1.666,2.29c-0.758,0.524-1.707,0.786-2.846,0.786
		c-1.804,0-3.139-0.589-4.004-1.768c-0.684-0.944-1.025-2.136-1.025-3.574c0-1.719,0.449-3.064,1.348-4.038s2.034-1.46,3.408-1.46
		c1.543,0,2.76,0.51,3.652,1.528c0.892,1.019,1.318,2.58,1.279,4.683h-6.875c0.02,0.813,0.24,1.447,0.664,1.899
		c0.423,0.452,0.95,0.679,1.582,0.679c0.43,0,0.791-0.117,1.084-0.352S292.141,624.46,292.291,623.939z M292.447,621.166
		c-0.02-0.794-0.225-1.398-0.615-1.812s-0.866-0.62-1.426-0.62c-0.6,0-1.094,0.218-1.484,0.654s-0.583,1.028-0.576,1.777H292.447z"
		/>
</g>
<g id="g764" transform="matrix(-1,0,0,1,381.22596,-118.94857)">
	<path id="path761" fill="#FFFFFF" stroke="#000000" stroke-width="2.5" d="M248.675,324.549c-6.172,0-11.141,4.969-11.141,11.141
		s4.969,11.141,11.141,11.141l0,0c6.172,0,11.141-4.969,11.141-11.141S254.847,324.549,248.675,324.549L248.675,324.549z"/>
	<path id="path763" fill="none" stroke="#000000" stroke-width="2.5" d="M240.627,328.312l15.907,14.998"/>
	<path id="path762" fill="none" stroke="#000000" stroke-width="2.5" d="M240.805,343.461l15.59-14.992"/>
</g>
<path id="path14700" fill="none" stroke="#FF0000" stroke-width="6" stroke-linejoin="round" d="M57.372,82.343l-1.085,34.711
	h37.966"/>
<g enable-background="new    ">
	<path d="M50.201,61.504V47.111h9.763v2.435h-6.887v3.406h5.945v2.435h-5.945v6.116H50.201z"/>
	<path d="M69.105,61.504v-1.561c-0.376,0.557-0.87,0.995-1.481,1.315c-0.612,0.321-1.258,0.481-1.938,0.481
		c-0.693,0-1.315-0.154-1.865-0.461c-0.55-0.308-0.949-0.74-1.195-1.296c-0.246-0.557-0.369-1.326-0.369-2.307v-6.598h2.729v4.791
		c0,1.466,0.05,2.364,0.151,2.695c0.1,0.331,0.283,0.592,0.549,0.786c0.265,0.193,0.602,0.29,1.01,0.29
		c0.466,0,0.884-0.129,1.253-0.388c0.369-0.259,0.622-0.58,0.758-0.962c0.136-0.383,0.204-1.32,0.204-2.813v-4.398h2.729v10.426
		H69.105z"/>
	<path d="M80.441,58.186l2.72,0.461c-0.35,1.008-0.902,1.775-1.656,2.302s-1.699,0.791-2.832,0.791
		c-1.794,0-3.122-0.592-3.983-1.777c-0.68-0.949-1.02-2.146-1.02-3.593c0-1.728,0.447-3.081,1.341-4.06
		c0.894-0.978,2.023-1.467,3.39-1.467c1.535,0,2.746,0.512,3.633,1.536c0.887,1.024,1.312,2.594,1.272,4.708h-6.838
		c0.019,0.818,0.239,1.455,0.661,1.91c0.42,0.455,0.945,0.682,1.573,0.682c0.428,0,0.787-0.118,1.079-0.354
		C80.072,59.089,80.292,58.709,80.441,58.186z M80.597,55.397c-0.02-0.798-0.224-1.405-0.612-1.821
		c-0.388-0.416-0.861-0.624-1.418-0.624c-0.596,0-1.088,0.22-1.477,0.658s-0.58,1.034-0.573,1.787H80.597z"/>
	<path d="M85.531,61.504V47.111h2.73v14.393H85.531z"/>
	<path d="M96.605,61.504V47.111h4.614c1.749,0,2.888,0.072,3.419,0.216c0.816,0.216,1.499,0.686,2.05,1.409
		c0.55,0.723,0.826,1.658,0.826,2.803c0,0.884-0.159,1.626-0.476,2.229c-0.317,0.603-0.721,1.075-1.209,1.419
		c-0.489,0.343-0.986,0.571-1.491,0.682c-0.687,0.137-1.681,0.206-2.982,0.206H99.48v5.429H96.605z M99.48,49.546v4.084h1.574
		c1.133,0,1.891-0.075,2.273-0.226c0.382-0.15,0.682-0.386,0.898-0.707c0.217-0.321,0.326-0.694,0.326-1.119
		c0-0.524-0.152-0.956-0.457-1.296c-0.305-0.34-0.69-0.553-1.156-0.638c-0.343-0.065-1.033-0.098-2.069-0.098H99.48z"/>
	<path d="M116.645,61.504v-1.561c-0.376,0.557-0.87,0.995-1.481,1.315c-0.612,0.321-1.258,0.481-1.938,0.481
		c-0.693,0-1.315-0.154-1.865-0.461c-0.55-0.308-0.949-0.74-1.195-1.296c-0.246-0.557-0.369-1.326-0.369-2.307v-6.598h2.729v4.791
		c0,1.466,0.05,2.364,0.151,2.695c0.1,0.331,0.283,0.592,0.549,0.786c0.265,0.193,0.602,0.29,1.01,0.29
		c0.466,0,0.884-0.129,1.253-0.388c0.369-0.259,0.622-0.58,0.758-0.962c0.136-0.383,0.204-1.32,0.204-2.813v-4.398h2.729v10.426
		H116.645z"/>
	<path d="M121.803,51.078h2.516v1.424c0.9-1.106,1.972-1.659,3.215-1.659c0.661,0,1.234,0.137,1.72,0.412
		c0.485,0.275,0.884,0.69,1.195,1.247c0.453-0.557,0.942-0.972,1.467-1.247c0.524-0.275,1.084-0.412,1.68-0.412
		c0.758,0,1.399,0.155,1.923,0.466c0.525,0.311,0.917,0.767,1.176,1.369c0.188,0.445,0.282,1.166,0.282,2.16v6.666h-2.73v-5.959
		c0-1.034-0.094-1.701-0.282-2.002c-0.252-0.393-0.641-0.589-1.166-0.589c-0.382,0-0.742,0.118-1.078,0.354
		c-0.337,0.236-0.58,0.581-0.729,1.036c-0.149,0.455-0.224,1.173-0.224,2.155v5.007h-2.729V55.79c0-1.014-0.049-1.669-0.146-1.963
		s-0.248-0.514-0.452-0.658c-0.204-0.144-0.48-0.216-0.831-0.216c-0.421,0-0.8,0.115-1.136,0.344
		c-0.337,0.229-0.578,0.56-0.724,0.992c-0.146,0.432-0.219,1.148-0.219,2.15v5.066h-2.729V51.078z"/>
	<path d="M139.619,51.078h2.545v1.532c0.33-0.524,0.777-0.949,1.34-1.276s1.188-0.491,1.875-0.491c1.198,0,2.215,0.475,3.05,1.423
		c0.835,0.949,1.253,2.271,1.253,3.966c0,1.741-0.421,3.094-1.263,4.06c-0.842,0.965-1.862,1.448-3.06,1.448
		c-0.57,0-1.086-0.115-1.549-0.344c-0.463-0.229-0.951-0.622-1.462-1.178v5.252h-2.73V51.078z M142.319,56.114
		c0,1.171,0.23,2.037,0.689,2.597c0.46,0.56,1.02,0.839,1.681,0.839c0.635,0,1.163-0.257,1.583-0.771
		c0.421-0.514,0.631-1.356,0.631-2.528c0-1.093-0.217-1.904-0.651-2.435s-0.971-0.795-1.612-0.795c-0.667,0-1.221,0.26-1.661,0.781
		C142.54,54.322,142.319,55.093,142.319,56.114z"/>
</g>
<path id="path18452" fill="#FF0000" stroke="#FF0000" stroke-width="6" d="M83.609,120.383l10.439-3.568l-10.368-3.089
	L83.609,120.383L83.609,120.383z"/>
<path id="path18458" fill="#00FF00" stroke="#00FF00" stroke-width="6" d="M370.787,175.292l3.568,10.439l3.089-10.368
	L370.787,175.292L370.787,175.292z"/>
<path id="path19954" fill="#FF0000" stroke="#FF0000" stroke-width="6" d="M324.722,325.473l-3.567-10.439l-3.089,10.367
	L324.722,325.473L324.722,325.473z"/>
<path id="path19956" fill="#FF0000" stroke="#FF0000" stroke-width="6" d="M128.89,178.004l3.568,10.439l3.089-10.368
	L128.89,178.004L128.89,178.004z"/>
<path id="path19964" fill="none" stroke="#FF0000" stroke-width="6" d="M237.906,307.902l3.568,10.439l3.089-10.367L237.906,307.902
	L237.906,307.902z"/>
<path id="path19966" inkscape:transform-center-y="-24.54489" inkscape:transform-center-x="8.37967" fill="none" stroke="#FF0000" stroke-width="6" d="
	M292.844,399.709l8.271-7.299l-10.76,1.124L292.844,399.709L292.844,399.709z"/>
<path id="path19968" fill="none" stroke="#FF0000" stroke-width="6" d="M160.197,338.199l10.439-3.568l-10.368-3.089
	L160.197,338.199L160.197,338.199z"/>
<path id="path692" sodipodi:nodetypes="ccccccccc" fill="#FFFFFF" stroke="#000000" stroke-width="2.5" d="M403.691,129.345
	c0,0-10.569-1.163-16.997,6.333c-7.569,8.271-7.855,21.324-7.855,21.324h-6.855V76.874h6.855c0,0,0.286,13.053,7.855,21.324
	c6.428,7.496,16.997,6.333,16.997,6.333V129.345L403.691,129.345z"/>
<path id="path3328" sodipodi:nodetypes="cccc" fill="none" stroke="#00FF00" stroke-width="6" stroke-linejoin="round" d="
	M283.879,310.695l0.053-41.221h91.143l-0.766-110.899"/>
<path id="path3330" fill="#00FF00" stroke="#00FF00" stroke-width="6" d="M280.434,307.477l3.567,10.439l3.089-10.367
	L280.434,307.477L280.434,307.477z"/>
<path id="path3330_1_" fill="#00FF00" stroke="#F7941E" stroke-width="6" d="M187.839,154.551l3.567,10.439l3.089-10.367
	L187.839,154.551L187.839,154.551z"/>
<path id="path691" sodipodi:nodetypes="ccccccccc" fill="#FFFFFF" stroke="#000000" stroke-width="2.5" d="M104.068,128.092
	c0,0,10.569-1.163,16.997,6.333c7.57,8.271,7.855,21.324,7.855,21.324h6.856V75.622h-6.856c0,0-0.285,13.053-7.855,21.324
	c-6.428,7.495-16.997,6.333-16.997,6.333V128.092L104.068,128.092z"/>
<g id="g768" transform="matrix(-1,0,0,1,623.2083,-118.06211)">
	<path id="path769" fill="#FFFFFF" stroke="#000000" stroke-width="2.5" d="M248.675,324.548c-6.172,0-11.141,4.969-11.141,11.141
		s4.969,11.141,11.141,11.141l0,0c6.172,0,11.141-4.969,11.141-11.141S254.847,324.548,248.675,324.548L248.675,324.548z"/>
	<path id="path770" fill="none" stroke="#000000" stroke-width="2.5" d="M240.627,328.312l15.907,14.998"/>
	<path id="path771" fill="none" stroke="#000000" stroke-width="2.5" d="M240.805,343.462l15.59-14.992"/>
</g>
<path fill="none" stroke="#FF0000" stroke-width="6" stroke-linejoin="round" d="M321.394,292.834h-80.159H321.394z"/>
<line fill="none" stroke="#FF0000" stroke-width="6" stroke-linejoin="round" x1="241.234" y1="292.834" x2="241.234" y2="312.696"/>
<g>
	<defs>
		<rect id="SVGID_1_" x="246.356" y="292.834" width="128.718" height="316.667"/>
	</defs>
	<clipPath id="SVGID_2_">
		<use xlink:href="#SVGID_1_"  overflow="visible"/>
	</clipPath>
	
		<path id="path759_2_" sodipodi:nodetypes="czzcc" clip-path="url(#SVGID_2_)" fill="none" stroke="#FF0000" stroke-width="6" stroke-linejoin="round" d="
		M321.279,224.51c0,0,0.003,1.193,0.008,3.371c0.05,22.174,0.333,146.408,0.375,151.761c0.044,5.479-48.035,16.818-40.586,36.05
		c7.497,19.358,32.484,41.68,47.144,81.471c15.357,31.218,19.601,103.721,20.457,103.683"/>
</g>
<polyline fill="none" stroke="#F7941E" stroke-width="6" stroke-linejoin="round" points="281.314,156.892 281.314,209.364 
	339.025,209.521 339.025,356.834 311.479,356.834 "/>
<polyline fill="none" stroke="#F7941E" stroke-width="6" stroke-linejoin="round" points="191.167,155.749 191.167,116.588 
	252.792,116.588 "/>
<path id="path2533" sodipodi:nodetypes="ccccccccc" fill="#FFFFFF" stroke="#000000" stroke-width="2.5" d="M252.792,129.235
	c0,0,10.569-1.163,16.997,6.333c7.569,8.271,7.855,21.324,7.855,21.324h6.855V76.765h-6.855c0,0-0.286,13.053-7.855,21.324
	c-6.428,7.496-16.997,6.333-16.997,6.333V129.235L252.792,129.235z"/>
<path id="path3330_2_" fill="#00FF00" stroke="#F7941E" stroke-width="6" d="M342.354,246.313l-3.567-10.439l-3.089,10.367
	L342.354,246.313L342.354,246.313z"/>
</svg>
